<?xml version="1.0" encoding="utf-8"?>
<!-- Generator: Adobe Illustrator 15.0.0, SVG Export Plug-In . SVG Version: 6.00 Build 0)  -->
<!DOCTYPE svg PUBLIC "-//W3C//DTD SVG 1.1//EN" "http://www.w3.org/Graphics/SVG/1.1/DTD/svg11.dtd">
<svg version="1.1" id="Layer_1" xmlns="http://www.w3.org/2000/svg" xmlns:xlink="http://www.w3.org/1999/xlink" x="0px" y="0px"
	 width="229px" height="85px" viewBox="0 0 229 85" enable-background="new 0 0 229 85" xml:space="preserve">
<g>
	<path d="M40.171,10.779h2.602l-10.969,68.45L14.366,43.333l-6.961,3.199l-1.195-2.25l10.582-5.309L31.03,67.908L40.171,10.779z"/>
	<path d="M76.593,27.83v0.984c-4.242,1.078-7.646,2.467-10.213,4.166c-2.566,1.7-4.594,3.762-6.082,6.188s-2.643,5.432-3.463,9.018
		c1.031-0.703,1.887-1.16,2.566-1.371c1.523-0.469,3.059-0.703,4.605-0.703c3.563,0,6.533,1.295,8.912,3.885
		c2.379,2.59,3.568,6.123,3.568,10.6c0,3.141-0.645,6.024-1.934,8.648c-1.289,2.625-3.117,4.653-5.484,6.082
		s-4.898,2.145-7.594,2.145c-2.93,0-5.637-0.804-8.121-2.409s-4.424-3.955-5.818-7.049s-2.092-6.457-2.092-10.09
		c0-5.344,1.283-10.318,3.85-14.924s6.211-8.273,10.934-11.004C64.95,29.266,70.405,27.877,76.593,27.83z M56.378,51.033
		c-0.188,3.234-0.281,5.602-0.281,7.102c0,3.234,0.311,6.363,0.932,9.387s1.471,5.145,2.549,6.363
		c0.773,0.867,1.688,1.301,2.742,1.301c1.078,0,2.039-0.627,2.883-1.881c0.844-1.253,1.266-3.802,1.266-7.646
		c0-6.469-0.785-10.934-2.355-13.395c-1.008-1.594-2.367-2.391-4.078-2.391C59.097,49.873,57.878,50.259,56.378,51.033z"/>
	<path d="M89.741,28.814h22.324l-3.551,9.07H89.741l-1.793,4.746c8.086,0.305,14.309,2.32,18.668,6.047
		c3.586,3.071,5.379,6.891,5.379,11.461c0,2.93-0.832,5.795-2.496,8.596c-1.664,2.801-4.008,4.957-7.031,6.469
		s-6.34,2.268-9.949,2.268c-3.891,0-6.879-0.727-8.965-2.18c-1.453-1.031-2.18-2.203-2.18-3.516c0-1.007,0.381-1.898,1.143-2.672
		s1.646-1.16,2.654-1.16c0.914,0,1.84,0.188,2.777,0.563c0.938,0.375,2.543,1.359,4.816,2.953c1.43,0.984,2.66,1.665,3.691,2.039
		c0.727,0.281,1.547,0.422,2.461,0.422c1.922,0,3.557-0.703,4.904-2.109s2.021-3.094,2.021-5.063c0-4.125-2.063-7.476-6.188-10.055
		c-4.125-2.578-9.328-3.867-15.609-3.867c-0.633,0-1.582,0.012-2.848,0.035L89.741,28.814z"/>
	<path d="M148.136,52.65c0,4.758-0.668,9.199-2.004,13.324c-0.797,2.531-1.869,4.605-3.217,6.223s-2.877,2.9-4.588,3.85
		s-3.574,1.424-5.59,1.424c-2.297,0-4.371-0.586-6.223-1.758s-3.492-2.848-4.922-5.027c-1.031-1.594-1.934-3.714-2.707-6.363
		c-1.008-3.586-1.512-7.289-1.512-11.109c0-5.18,0.727-9.937,2.18-14.273c1.195-3.586,3.012-6.333,5.449-8.244
		c2.438-1.91,5.016-2.865,7.734-2.865c2.766,0,5.35,0.944,7.752,2.83c2.402,1.887,4.166,4.424,5.291,7.611
		C147.351,42.654,148.136,47.447,148.136,52.65z M137.308,52.58c0-8.344-0.047-13.207-0.141-14.59
		c-0.234-3.257-0.797-5.461-1.688-6.609c-0.586-0.75-1.535-1.125-2.848-1.125c-1.008,0-1.805,0.281-2.391,0.844
		c-0.867,0.821-1.453,2.268-1.758,4.342s-0.457,9.311-0.457,21.709c0,6.75,0.234,11.273,0.703,13.57
		c0.352,1.665,0.855,2.777,1.512,3.34s1.523,0.844,2.602,0.844c1.172,0,2.051-0.375,2.637-1.125c0.984-1.313,1.547-3.34,1.688-6.082
		L137.308,52.58z"/>
	<path d="M184.136,52.65c0,4.758-0.668,9.199-2.004,13.324c-0.797,2.531-1.869,4.605-3.217,6.223s-2.877,2.9-4.588,3.85
		s-3.574,1.424-5.59,1.424c-2.297,0-4.371-0.586-6.223-1.758s-3.492-2.848-4.922-5.027c-1.031-1.594-1.934-3.714-2.707-6.363
		c-1.008-3.586-1.512-7.289-1.512-11.109c0-5.18,0.727-9.937,2.18-14.273c1.195-3.586,3.012-6.333,5.449-8.244
		c2.438-1.91,5.016-2.865,7.734-2.865c2.766,0,5.35,0.944,7.752,2.83c2.402,1.887,4.166,4.424,5.291,7.611
		C183.351,42.654,184.136,47.447,184.136,52.65z M173.308,52.58c0-8.344-0.047-13.207-0.141-14.59
		c-0.234-3.257-0.797-5.461-1.688-6.609c-0.586-0.75-1.535-1.125-2.848-1.125c-1.008,0-1.805,0.281-2.391,0.844
		c-0.867,0.821-1.453,2.268-1.758,4.342s-0.457,9.311-0.457,21.709c0,6.75,0.234,11.273,0.703,13.57
		c0.352,1.665,0.855,2.777,1.512,3.34s1.523,0.844,2.602,0.844c1.172,0,2.051-0.375,2.637-1.125c0.984-1.313,1.547-3.34,1.688-6.082
		L173.308,52.58z"/>
	<path d="M220.136,52.65c0,4.758-0.668,9.199-2.004,13.324c-0.797,2.531-1.869,4.605-3.217,6.223s-2.877,2.9-4.588,3.85
		s-3.574,1.424-5.59,1.424c-2.297,0-4.371-0.586-6.223-1.758s-3.492-2.848-4.922-5.027c-1.031-1.594-1.934-3.714-2.707-6.363
		c-1.008-3.586-1.512-7.289-1.512-11.109c0-5.18,0.727-9.937,2.18-14.273c1.195-3.586,3.012-6.333,5.449-8.244
		c2.438-1.91,5.016-2.865,7.734-2.865c2.766,0,5.35,0.944,7.752,2.83c2.402,1.887,4.166,4.424,5.291,7.611
		C219.351,42.654,220.136,47.447,220.136,52.65z M209.308,52.58c0-8.344-0.047-13.207-0.141-14.59
		c-0.234-3.257-0.797-5.461-1.688-6.609c-0.586-0.75-1.535-1.125-2.848-1.125c-1.008,0-1.805,0.281-2.391,0.844
		c-0.867,0.821-1.453,2.268-1.758,4.342s-0.457,9.311-0.457,21.709c0,6.75,0.234,11.273,0.703,13.57
		c0.352,1.665,0.855,2.777,1.512,3.34s1.523,0.844,2.602,0.844c1.172,0,2.051-0.375,2.637-1.125c0.984-1.313,1.547-3.34,1.688-6.082
		L209.308,52.58z"/>
</g>
<polyline points="42.772,10.779 220.136,10.779 220.136,12.948 42.425,12.948 "/>
</svg>
