<?xml version="1.0" encoding="utf-8"?>
<!-- Generator: Adobe Illustrator 15.0.0, SVG Export Plug-In . SVG Version: 6.00 Build 0)  -->
<!DOCTYPE svg PUBLIC "-//W3C//DTD SVG 1.0//EN" "http://www.w3.org/TR/2001/REC-SVG-20010904/DTD/svg10.dtd">
<svg version="1.0" id="Layer_1" xmlns="http://www.w3.org/2000/svg" xmlns:xlink="http://www.w3.org/1999/xlink" x="0px" y="0px"
	 width="128px" height="100px" viewBox="0 0 128 100" enable-background="new 0 0 128 100" xml:space="preserve">
<text transform="matrix(1 0 0 1 102.458 91.75)" font-family="'MyriadPro-Regular'" font-size="12">Re</text>
<text transform="matrix(1 0 0 1 10.9995 15.4165)" font-family="'MyriadPro-Regular'" font-size="12">Im</text>
<g>
	<g>
		<polyline fill="none" stroke="#000000" stroke-miterlimit="10" points="29.333,12.875 29.333,76.375 105.833,76.375 		"/>
		<g>
			<path d="M29.333,6.875c-1.054,2.84-2.852,6.363-4.756,8.547l4.756-1.72l4.755,1.72C32.184,13.238,30.386,9.715,29.333,6.875z"/>
		</g>
		<g>
			<path d="M111.833,76.375c-2.84,1.054-6.363,2.852-8.547,4.756l1.72-4.756l-1.72-4.755
				C105.47,73.524,108.993,75.322,111.833,76.375z"/>
		</g>
	</g>
</g>
<path d="M29.333,30.125"/>
<g>
	<g>
		<line fill="none" stroke="#000000" stroke-miterlimit="10" x1="28.833" y1="31.375" x2="28.833" y2="31.375"/>
		
			<line fill="none" stroke="#000000" stroke-miterlimit="10" stroke-dasharray="1,1" x1="29.833" y1="31.375" x2="59.833" y2="31.375"/>
		<polyline fill="none" stroke="#000000" stroke-miterlimit="10" points="59.833,31.375 60.333,31.375 60.333,31.875 		"/>
		
			<line fill="none" stroke="#000000" stroke-miterlimit="10" stroke-dasharray="1,1" x1="60.333" y1="32.875" x2="60.333" y2="75.875"/>
		<line fill="none" stroke="#000000" stroke-miterlimit="10" x1="60.333" y1="76.875" x2="60.333" y2="76.875"/>
	</g>
</g>
<line fill="none" stroke="#000000" stroke-width="0.5" stroke-miterlimit="10" x1="29.333" y1="76.375" x2="60.333" y2="31.375"/>
<text transform="matrix(1 0 0 1 56.583 24.9585)"><tspan x="0" y="0" font-family="'MyriadPro-Regular'" font-size="12">Z=a+b</tspan><tspan x="33.552" y="0" font-family="'MyriadPro-It'" font-size="12">i</tspan></text>
<text transform="matrix(1 0 0 1 57.5 84.748)" font-family="'MyriadPro-Regular'" font-size="12">a</text>
<text transform="matrix(1 0 0 1 20.833 35.0811)" font-family="'MyriadPro-Regular'" font-size="12">b</text>
</svg>
