<?xml version="1.0" encoding="utf-8"?>
<!-- Generator: Adobe Illustrator 15.0.0, SVG Export Plug-In  -->
<!DOCTYPE svg PUBLIC "-//W3C//DTD SVG 1.1//EN" "http://www.w3.org/Graphics/SVG/1.1/DTD/svg11.dtd" [
	<!ENTITY ns_flows "http://ns.adobe.com/Flows/1.0/">
]>
<svg version="1.1"
	 xmlns="http://www.w3.org/2000/svg" xmlns:xlink="http://www.w3.org/1999/xlink" xmlns:a="http://ns.adobe.com/AdobeSVGViewerExtensions/3.0/"
	 x="0px" y="0px" width="305px" height="194px" viewBox="-10.302 -12.004 305 194" enable-background="new -10.302 -12.004 305 194"
	 xml:space="preserve">
<defs>
</defs>
<rect x="28.847" y="57.192" fill="none" stroke="#000000" stroke-width="0.25" stroke-miterlimit="10" width="28.347" height="28.347"/>
<rect x="28.847" y="0.499" fill="none" stroke="#000000" stroke-width="0.25" stroke-miterlimit="10" width="28.347" height="28.347"/>
<rect x="28.847" y="28.846" fill="none" stroke="#000000" stroke-width="0.25" stroke-miterlimit="10" width="28.347" height="28.347"/>
<rect x="0.5" y="0.499" fill="none" stroke="#000000" stroke-width="0.25" stroke-miterlimit="10" width="28.347" height="28.347"/>
<rect x="0.501" y="28.846" fill="none" stroke="#000000" stroke-width="0.25" stroke-miterlimit="10" width="28.346" height="28.347"/>
<rect x="0.5" y="57.192" fill="none" stroke="#000000" stroke-width="0.25" stroke-miterlimit="10" width="28.346" height="28.347"/>
<rect x="0.501" y="85.539" fill="none" stroke="#000000" stroke-width="0.25" stroke-miterlimit="10" width="28.346" height="28.347"/>
<rect x="0.5" y="113.886" fill="none" stroke="#000000" stroke-width="0.25" stroke-miterlimit="10" width="28.346" height="28.347"/>
<rect x="0.501" y="142.232" fill="none" stroke="#000000" stroke-width="0.25" stroke-miterlimit="10" width="28.346" height="28.347"/>
<rect x="28.847" y="142.232" fill="none" stroke="#000000" stroke-width="0.25" stroke-miterlimit="10" width="28.347" height="28.347"/>
<rect x="28.847" y="85.539" fill="none" stroke="#000000" stroke-width="0.25" stroke-miterlimit="10" width="28.347" height="28.347"/>
<rect x="28.847" y="113.886" fill="none" stroke="#000000" stroke-width="0.25" stroke-miterlimit="10" width="28.347" height="28.347"/>
<rect x="85.541" y="57.192" fill="none" stroke="#000000" stroke-width="0.25" stroke-miterlimit="10" width="28.347" height="28.347"/>
<rect x="85.541" y="0.499" fill="none" stroke="#000000" stroke-width="0.25" stroke-miterlimit="10" width="28.347" height="28.347"/>
<rect x="85.541" y="28.846" fill="none" stroke="#000000" stroke-width="0.25" stroke-miterlimit="10" width="28.347" height="28.347"/>
<rect x="57.194" y="0.499" fill="none" stroke="#000000" stroke-width="0.25" stroke-miterlimit="10" width="28.347" height="28.347"/>
<rect x="57.194" y="28.846" fill="none" stroke="#000000" stroke-width="0.25" stroke-miterlimit="10" width="28.346" height="28.347"/>
<rect x="57.194" y="57.192" fill="none" stroke="#000000" stroke-width="0.25" stroke-miterlimit="10" width="28.346" height="28.347"/>
<rect x="57.194" y="85.539" fill="none" stroke="#000000" stroke-width="0.25" stroke-miterlimit="10" width="28.346" height="28.347"/>
<rect x="57.194" y="113.886" fill="none" stroke="#000000" stroke-width="0.25" stroke-miterlimit="10" width="28.346" height="28.347"/>
<rect x="57.194" y="142.232" fill="none" stroke="#000000" stroke-width="0.25" stroke-miterlimit="10" width="28.346" height="28.347"/>
<rect x="85.541" y="142.232" fill="none" stroke="#000000" stroke-width="0.25" stroke-miterlimit="10" width="28.347" height="28.347"/>
<rect x="85.541" y="85.539" fill="none" stroke="#000000" stroke-width="0.25" stroke-miterlimit="10" width="28.347" height="28.347"/>
<rect x="85.541" y="113.886" fill="none" stroke="#000000" stroke-width="0.25" stroke-miterlimit="10" width="28.347" height="28.347"/>
<rect x="142.234" y="57.192" fill="none" stroke="#000000" stroke-width="0.25" stroke-miterlimit="10" width="28.347" height="28.347"/>
<rect x="142.234" y="0.499" fill="none" stroke="#000000" stroke-width="0.25" stroke-miterlimit="10" width="28.347" height="28.347"/>
<rect x="142.234" y="28.846" fill="none" stroke="#000000" stroke-width="0.25" stroke-miterlimit="10" width="28.347" height="28.347"/>
<rect x="113.887" y="0.499" fill="none" stroke="#000000" stroke-width="0.25" stroke-miterlimit="10" width="28.347" height="28.347"/>
<rect x="113.888" y="28.846" fill="none" stroke="#000000" stroke-width="0.25" stroke-miterlimit="10" width="28.346" height="28.347"/>
<rect x="113.887" y="57.192" fill="none" stroke="#000000" stroke-width="0.25" stroke-miterlimit="10" width="28.346" height="28.347"/>
<rect x="113.888" y="85.539" fill="none" stroke="#000000" stroke-width="0.25" stroke-miterlimit="10" width="28.346" height="28.347"/>
<rect x="113.887" y="113.886" fill="none" stroke="#000000" stroke-width="0.25" stroke-miterlimit="10" width="28.346" height="28.347"/>
<rect x="113.888" y="142.232" fill="none" stroke="#000000" stroke-width="0.25" stroke-miterlimit="10" width="28.346" height="28.347"/>
<rect x="142.234" y="142.232" fill="none" stroke="#000000" stroke-width="0.25" stroke-miterlimit="10" width="28.347" height="28.347"/>
<rect x="142.234" y="85.539" fill="none" stroke="#000000" stroke-width="0.25" stroke-miterlimit="10" width="28.347" height="28.347"/>
<rect x="142.234" y="113.886" fill="none" stroke="#000000" stroke-width="0.25" stroke-miterlimit="10" width="28.347" height="28.347"/>
<rect x="198.927" y="57.192" fill="none" stroke="#000000" stroke-width="0.25" stroke-miterlimit="10" width="28.347" height="28.347"/>
<rect x="198.927" y="0.499" fill="none" stroke="#000000" stroke-width="0.25" stroke-miterlimit="10" width="28.347" height="28.347"/>
<rect x="198.927" y="28.846" fill="none" stroke="#000000" stroke-width="0.25" stroke-miterlimit="10" width="28.347" height="28.347"/>
<rect x="170.581" y="0.499" fill="none" stroke="#000000" stroke-width="0.25" stroke-miterlimit="10" width="28.347" height="28.347"/>
<rect x="170.581" y="28.846" fill="none" stroke="#000000" stroke-width="0.25" stroke-miterlimit="10" width="28.346" height="28.347"/>
<rect x="170.581" y="57.192" fill="none" stroke="#000000" stroke-width="0.25" stroke-miterlimit="10" width="28.346" height="28.347"/>
<rect x="170.581" y="85.539" fill="none" stroke="#000000" stroke-width="0.25" stroke-miterlimit="10" width="28.346" height="28.347"/>
<rect x="170.581" y="113.886" fill="none" stroke="#000000" stroke-width="0.25" stroke-miterlimit="10" width="28.346" height="28.347"/>
<rect x="170.581" y="142.232" fill="none" stroke="#000000" stroke-width="0.25" stroke-miterlimit="10" width="28.346" height="28.347"/>
<rect x="198.927" y="142.232" fill="none" stroke="#000000" stroke-width="0.25" stroke-miterlimit="10" width="28.347" height="28.347"/>
<rect x="198.927" y="85.539" fill="none" stroke="#000000" stroke-width="0.25" stroke-miterlimit="10" width="28.347" height="28.347"/>
<rect x="198.927" y="113.886" fill="none" stroke="#000000" stroke-width="0.25" stroke-miterlimit="10" width="28.347" height="28.347"/>
<rect x="255.62" y="57.192" fill="none" stroke="#000000" stroke-width="0.25" stroke-miterlimit="10" width="28.348" height="28.347"/>
<rect x="255.62" y="0.499" fill="none" stroke="#000000" stroke-width="0.25" stroke-miterlimit="10" width="28.348" height="28.347"/>
<rect x="255.62" y="28.846" fill="none" stroke="#000000" stroke-width="0.25" stroke-miterlimit="10" width="28.348" height="28.347"/>
<rect x="227.274" y="0.499" fill="none" stroke="#000000" stroke-width="0.25" stroke-miterlimit="10" width="28.346" height="28.347"/>
<rect x="227.274" y="28.846" fill="none" stroke="#000000" stroke-width="0.25" stroke-miterlimit="10" width="28.346" height="28.347"/>
<rect x="227.274" y="57.192" fill="none" stroke="#000000" stroke-width="0.25" stroke-miterlimit="10" width="28.346" height="28.347"/>
<rect x="227.274" y="85.539" fill="none" stroke="#000000" stroke-width="0.25" stroke-miterlimit="10" width="28.346" height="28.347"/>
<rect x="227.274" y="113.886" fill="none" stroke="#000000" stroke-width="0.25" stroke-miterlimit="10" width="28.346" height="28.347"/>
<rect x="227.274" y="142.232" fill="none" stroke="#000000" stroke-width="0.25" stroke-miterlimit="10" width="28.346" height="28.347"/>
<rect x="255.62" y="142.232" fill="none" stroke="#000000" stroke-width="0.25" stroke-miterlimit="10" width="28.348" height="28.347"/>
<rect x="255.62" y="85.539" fill="none" stroke="#000000" stroke-width="0.25" stroke-miterlimit="10" width="28.348" height="28.347"/>
<rect x="255.62" y="113.886" fill="none" stroke="#000000" stroke-width="0.25" stroke-miterlimit="10" width="28.348" height="28.347"/>
<polygon opacity="0.75" fill="#43505F" stroke="#000000" stroke-miterlimit="10" points="0.5,85.54 0.5,28.847 28.847,28.846 
	28.847,0.5 57.193,0.5 57.193,28.847 85.54,28.846 85.54,57.193 28.847,57.193 28.847,85.539 "/>
</svg>
