<?xml version="1.0" encoding="utf-8"?>
<!-- Generator: Adobe Illustrator 15.0.0, SVG Export Plug-In  -->
<!DOCTYPE svg PUBLIC "-//W3C//DTD SVG 1.1//EN" "http://www.w3.org/Graphics/SVG/1.1/DTD/svg11.dtd" [
	<!ENTITY ns_flows "http://ns.adobe.com/Flows/1.0/">
]>
<svg version="1.1"
	 xmlns="http://www.w3.org/2000/svg" xmlns:xlink="http://www.w3.org/1999/xlink" xmlns:a="http://ns.adobe.com/AdobeSVGViewerExtensions/3.0/"
	 x="0px" y="0px" width="595px" height="359px" viewBox="-8.763 -19.364 595 359" enable-background="new -8.763 -19.364 595 359"
	 xml:space="preserve">
<defs>
</defs>
<g>
	<g>
		<polyline fill="none" stroke="#000000" stroke-miterlimit="10" points="28.609,91.637 13.122,91.637 13.122,74.624 		"/>
		<g>
			<path d="M27.712,91.637l-1.096,1.801l0.062,0.041l2.938-1.167c1.023-0.225,2.047-0.45,3.07-0.675
				c-1.023-0.225-2.047-0.45-3.07-0.675l-2.938-1.167l-0.062,0.031L27.712,91.637z"/>
		</g>
		<g>
			<path d="M13.122,75.521l-1.801,1.096l-0.041-0.062l1.167-2.938c0.225-1.023,0.45-2.047,0.675-3.07
				c0.225,1.023,0.45,2.047,0.675,3.07l1.167,2.938l-0.031,0.062L13.122,75.521z"/>
		</g>
	</g>
</g>
<g>
	<path d="M34.521,95.833l0.563,1.271c0.168,0.372,0.276,0.66,0.396,0.924h0.024c0.228-0.324,0.36-0.528,0.636-0.875l1.08-1.319
		h1.139l-2.447,2.83l1.379,2.975H36.2l-0.576-1.307c-0.204-0.432-0.288-0.66-0.42-1.032h-0.036c-0.167,0.276-0.348,0.54-0.6,0.888
		l-1.175,1.451h-1.151l2.542-2.986l-1.343-2.818H34.521z"/>
</g>
<g>
	<path d="M4.229,64.743l0.576,3.118c0.132,0.672,0.204,1.104,0.264,1.535h0.024c0.156-0.372,0.324-0.78,0.624-1.427l1.487-3.226
		h1.055l-2.183,4.414c-0.624,1.247-1.211,2.267-2.003,3.046c-0.647,0.66-1.355,0.936-1.679,1.007l-0.251-0.864
		c0.251-0.084,0.671-0.24,1.067-0.552c0.396-0.3,0.815-0.768,1.127-1.343c0.048-0.096,0.048-0.156,0.024-0.264l-1.164-5.445H4.229z"
		/>
</g>
<rect x="46.693" y="0.5" fill="none" stroke="#000000" stroke-miterlimit="10" width="28.347" height="28.347"/>
<rect x="46.693" y="57.193" fill="none" stroke="#000000" stroke-miterlimit="10" width="28.347" height="28.347"/>
<rect x="46.693" y="28.847" fill="none" stroke="#000000" stroke-miterlimit="10" width="28.347" height="28.347"/>
<rect x="75.04" y="57.193" fill="none" stroke="#000000" stroke-miterlimit="10" width="28.347" height="28.347"/>
<rect x="18.347" y="28.847" fill="none" stroke="#000000" stroke-miterlimit="10" width="28.347" height="28.347"/>
<g>
	<path d="M54.781,66.589c-0.684,1.079-1.247,2.698-1.247,4.881c0,2.146,0.563,3.766,1.247,4.857h-0.72
		c-0.624-0.912-1.307-2.519-1.307-4.87c0.024-2.351,0.684-3.97,1.307-4.869H54.781z"/>
	<path d="M59.376,70.979c0,2.842-0.899,4.005-2.027,4.005c-1.211,0-1.943-1.439-1.943-3.981c0-2.626,0.78-4.006,2.051-4.006
		C58.717,66.997,59.376,68.496,59.376,70.979z M56.33,70.991c-0.012,1.883,0.312,3.202,1.08,3.202c0.744,0,1.043-1.331,1.043-3.202
		c0-1.823-0.3-3.202-1.043-3.202C56.654,67.789,56.33,69.108,56.33,70.991z"/>
	<path d="M59.907,76.4c0.251-0.696,0.576-1.967,0.695-2.794l1.043-0.12c-0.276,0.972-0.779,2.303-1.104,2.831L59.907,76.4z"/>
	<path d="M66.324,70.979c0,2.842-0.899,4.005-2.027,4.005c-1.211,0-1.943-1.439-1.943-3.981c0-2.626,0.78-4.006,2.051-4.006
		C65.664,66.997,66.324,68.496,66.324,70.979z M63.277,70.991c-0.012,1.883,0.312,3.202,1.08,3.202c0.744,0,1.043-1.331,1.043-3.202
		c0-1.823-0.3-3.202-1.043-3.202C63.602,67.789,63.277,69.108,63.277,70.991z"/>
	<path d="M66.95,76.328c0.684-1.08,1.248-2.723,1.248-4.881c0-2.159-0.564-3.778-1.248-4.857h0.72
		c0.624,0.887,1.307,2.482,1.307,4.857c-0.024,2.375-0.684,3.958-1.307,4.881H66.95z"/>
</g>
<g>
	<path d="M83.128,66.589c-0.684,1.079-1.247,2.698-1.247,4.881c0,2.146,0.563,3.766,1.247,4.857h-0.72
		c-0.624-0.912-1.307-2.519-1.307-4.87c0.024-2.351,0.684-3.97,1.307-4.869H83.128z"/>
	<path d="M85.685,68.028h-0.024l-1.295,0.744l-0.18-0.72l1.643-0.959h0.756v7.796h-0.899V68.028z"/>
	<path d="M88.253,76.4c0.251-0.696,0.576-1.967,0.695-2.794l1.043-0.12c-0.276,0.972-0.779,2.303-1.104,2.831L88.253,76.4z"/>
	<path d="M94.67,70.979c0,2.842-0.899,4.005-2.027,4.005c-1.211,0-1.943-1.439-1.943-3.981c0-2.626,0.78-4.006,2.051-4.006
		C94.011,66.997,94.67,68.496,94.67,70.979z M91.624,70.991c-0.012,1.883,0.312,3.202,1.08,3.202c0.744,0,1.043-1.331,1.043-3.202
		c0-1.823-0.3-3.202-1.043-3.202C91.948,67.789,91.624,69.108,91.624,70.991z"/>
	<path d="M95.297,76.328c0.684-1.08,1.248-2.723,1.248-4.881c0-2.159-0.564-3.778-1.248-4.857h0.72
		c0.624,0.887,1.307,2.482,1.307,4.857c-0.024,2.375-0.684,3.958-1.307,4.881H95.297z"/>
</g>
<g>
	<path d="M24.761,38.243c-0.684,1.079-1.247,2.698-1.247,4.881c0,2.146,0.563,3.766,1.247,4.857h-0.72
		c-0.624-0.912-1.307-2.519-1.307-4.87c0.024-2.351,0.684-3.97,1.307-4.869H24.761z"/>
	<path d="M28.049,43.052v0.708h-2.626v-0.708H28.049z"/>
	<path d="M30.665,39.682h-0.024l-1.295,0.744l-0.18-0.72l1.643-0.959h0.756v7.796h-0.899V39.682z"/>
	<path d="M33.234,48.053c0.251-0.696,0.576-1.967,0.695-2.794l1.043-0.12c-0.276,0.972-0.779,2.303-1.104,2.831L33.234,48.053z"/>
	<path d="M37.613,39.682h-0.024l-1.295,0.744l-0.18-0.72l1.644-0.959h0.755v7.796h-0.899V39.682z"/>
	<path d="M40.278,47.981c0.684-1.08,1.248-2.723,1.248-4.881c0-2.159-0.564-3.778-1.248-4.857h0.72
		c0.624,0.887,1.307,2.482,1.307,4.857c-0.024,2.375-0.684,3.958-1.307,4.881H40.278z"/>
</g>
<g>
	<path d="M54.781,38.243c-0.684,1.079-1.247,2.698-1.247,4.881c0,2.146,0.563,3.766,1.247,4.857h-0.72
		c-0.624-0.912-1.307-2.519-1.307-4.87c0.024-2.351,0.684-3.97,1.307-4.869H54.781z"/>
	<path d="M59.376,42.632c0,2.842-0.899,4.005-2.027,4.005c-1.211,0-1.943-1.439-1.943-3.981c0-2.626,0.78-4.006,2.051-4.006
		C58.717,38.65,59.376,40.149,59.376,42.632z M56.33,42.644c-0.012,1.883,0.312,3.202,1.08,3.202c0.744,0,1.043-1.331,1.043-3.202
		c0-1.823-0.3-3.202-1.043-3.202C56.654,39.442,56.33,40.761,56.33,42.644z"/>
	<path d="M59.907,48.053c0.251-0.696,0.576-1.967,0.695-2.794l1.043-0.12c-0.276,0.972-0.779,2.303-1.104,2.831L59.907,48.053z"/>
	<path d="M64.285,39.682h-0.024l-1.295,0.744l-0.18-0.72l1.643-0.959h0.756v7.796h-0.899V39.682z"/>
	<path d="M66.95,47.981c0.684-1.08,1.248-2.723,1.248-4.881c0-2.159-0.564-3.778-1.248-4.857h0.72
		c0.624,0.887,1.307,2.482,1.307,4.857c-0.024,2.375-0.684,3.958-1.307,4.881H66.95z"/>
</g>
<g>
	<path d="M54.781,9.896c-0.684,1.079-1.247,2.698-1.247,4.881c0,2.146,0.563,3.766,1.247,4.857h-0.72
		c-0.624-0.912-1.307-2.519-1.307-4.87c0.024-2.351,0.684-3.97,1.307-4.869H54.781z"/>
	<path d="M59.376,14.286c0,2.842-0.899,4.005-2.027,4.005c-1.211,0-1.943-1.439-1.943-3.981c0-2.626,0.78-4.006,2.051-4.006
		C58.717,10.304,59.376,11.803,59.376,14.286z M56.33,14.297c-0.012,1.883,0.312,3.202,1.08,3.202c0.744,0,1.043-1.331,1.043-3.202
		c0-1.823-0.3-3.202-1.043-3.202C56.654,11.095,56.33,12.415,56.33,14.297z"/>
	<path d="M59.907,19.707c0.251-0.696,0.576-1.967,0.695-2.794l1.043-0.12c-0.276,0.972-0.779,2.303-1.104,2.831L59.907,19.707z"/>
	<path d="M62.426,18.195v-0.6l0.647-0.888c0.936-1.295,2.027-2.758,2.027-4.222c0-0.863-0.372-1.391-1.104-1.391
		c-0.563,0-0.936,0.3-1.127,0.432l-0.228-0.695c0.264-0.228,0.815-0.528,1.523-0.528c1.295,0,1.847,0.959,1.847,2.135
		c0,1.463-0.948,2.878-1.919,4.198l-0.516,0.72v0.024h2.59v0.815H62.426z"/>
	<path d="M66.95,19.635c0.684-1.08,1.248-2.723,1.248-4.881c0-2.159-0.564-3.778-1.248-4.857h0.72
		c0.624,0.887,1.307,2.482,1.307,4.857c-0.024,2.375-0.684,3.958-1.307,4.881H66.95z"/>
</g>
<rect x="138.173" y="57.193" fill="none" stroke="#000000" stroke-miterlimit="10" width="28.347" height="28.347"/>
<rect x="194.867" y="57.193" fill="none" stroke="#000000" stroke-miterlimit="10" width="28.347" height="28.347"/>
<rect x="166.52" y="57.193" fill="none" stroke="#000000" stroke-miterlimit="10" width="28.347" height="28.347"/>
<rect x="194.867" y="28.847" fill="none" stroke="#000000" stroke-miterlimit="10" width="28.347" height="28.347"/>
<rect x="166.52" y="85.54" fill="none" stroke="#000000" stroke-miterlimit="10" width="28.347" height="28.347"/>
<g>
	<path d="M202.955,66.589c-0.684,1.079-1.247,2.698-1.247,4.881c0,2.146,0.563,3.766,1.247,4.857h-0.72
		c-0.624-0.912-1.307-2.519-1.307-4.87c0.024-2.351,0.684-3.97,1.307-4.869H202.955z"/>
	<path d="M207.55,70.979c0,2.842-0.899,4.005-2.027,4.005c-1.211,0-1.943-1.439-1.943-3.981c0-2.626,0.78-4.006,2.051-4.006
		C206.89,66.997,207.55,68.496,207.55,70.979z M204.503,70.991c-0.012,1.883,0.312,3.202,1.08,3.202
		c0.744,0,1.043-1.331,1.043-3.202c0-1.823-0.3-3.202-1.043-3.202C204.828,67.789,204.503,69.108,204.503,70.991z"/>
	<path d="M208.08,76.4c0.251-0.696,0.576-1.967,0.695-2.794l1.043-0.12c-0.276,0.972-0.779,2.303-1.104,2.831L208.08,76.4z"/>
	<path d="M214.497,70.979c0,2.842-0.899,4.005-2.027,4.005c-1.211,0-1.943-1.439-1.943-3.981c0-2.626,0.78-4.006,2.051-4.006
		C213.837,66.997,214.497,68.496,214.497,70.979z M211.451,70.991c-0.012,1.883,0.312,3.202,1.08,3.202
		c0.744,0,1.043-1.331,1.043-3.202c0-1.823-0.3-3.202-1.043-3.202C211.775,67.789,211.451,69.108,211.451,70.991z"/>
	<path d="M215.124,76.328c0.684-1.08,1.248-2.723,1.248-4.881c0-2.159-0.564-3.778-1.248-4.857h0.72
		c0.624,0.887,1.307,2.482,1.307,4.857c-0.024,2.375-0.684,3.958-1.307,4.881H215.124z"/>
</g>
<g>
	<path d="M202.955,38.243c-0.684,1.079-1.247,2.698-1.247,4.881c0,2.146,0.563,3.766,1.247,4.857h-0.72
		c-0.624-0.912-1.307-2.519-1.307-4.87c0.024-2.351,0.684-3.97,1.307-4.869H202.955z"/>
	<path d="M207.55,42.632c0,2.842-0.899,4.005-2.027,4.005c-1.211,0-1.943-1.439-1.943-3.981c0-2.626,0.78-4.006,2.051-4.006
		C206.89,38.65,207.55,40.149,207.55,42.632z M204.503,42.644c-0.012,1.883,0.312,3.202,1.08,3.202c0.744,0,1.043-1.331,1.043-3.202
		c0-1.823-0.3-3.202-1.043-3.202C204.828,39.442,204.503,40.761,204.503,42.644z"/>
	<path d="M208.08,48.053c0.251-0.696,0.576-1.967,0.695-2.794l1.043-0.12c-0.276,0.972-0.779,2.303-1.104,2.831L208.08,48.053z"/>
	<path d="M212.458,39.682h-0.024l-1.295,0.744l-0.18-0.72l1.643-0.959h0.756v7.796h-0.899V39.682z"/>
	<path d="M215.124,47.981c0.684-1.08,1.248-2.723,1.248-4.881c0-2.159-0.564-3.778-1.248-4.857h0.72
		c0.624,0.887,1.307,2.482,1.307,4.857c-0.024,2.375-0.684,3.958-1.307,4.881H215.124z"/>
</g>
<g>
	<path d="M172.934,66.589c-0.684,1.079-1.247,2.698-1.247,4.881c0,2.146,0.563,3.766,1.247,4.857h-0.72
		c-0.624-0.912-1.307-2.519-1.307-4.87c0.024-2.351,0.684-3.97,1.307-4.869H172.934z"/>
	<path d="M176.222,71.398v0.708h-2.626v-0.708H176.222z"/>
	<path d="M178.838,68.028h-0.024l-1.295,0.744l-0.18-0.72l1.643-0.959h0.756v7.796h-0.899V68.028z"/>
	<path d="M181.408,76.4c0.251-0.696,0.576-1.967,0.695-2.794l1.043-0.12c-0.276,0.972-0.779,2.303-1.104,2.831L181.408,76.4z"/>
	<path d="M187.825,70.979c0,2.842-0.899,4.005-2.027,4.005c-1.211,0-1.943-1.439-1.943-3.981c0-2.626,0.78-4.006,2.051-4.006
		C187.165,66.997,187.825,68.496,187.825,70.979z M184.779,70.991c-0.012,1.883,0.312,3.202,1.079,3.202
		c0.744,0,1.043-1.331,1.043-3.202c0-1.823-0.3-3.202-1.043-3.202C185.103,67.789,184.779,69.108,184.779,70.991z"/>
	<path d="M188.451,76.328c0.684-1.08,1.248-2.723,1.248-4.881c0-2.159-0.564-3.778-1.248-4.857h0.72
		c0.624,0.887,1.307,2.482,1.307,4.857c-0.024,2.375-0.684,3.958-1.307,4.881H188.451z"/>
</g>
<g>
	<path d="M144.587,66.589c-0.684,1.079-1.247,2.698-1.247,4.881c0,2.146,0.563,3.766,1.247,4.857h-0.72
		c-0.624-0.912-1.307-2.519-1.307-4.87c0.024-2.351,0.684-3.97,1.307-4.869H144.587z"/>
	<path d="M147.875,71.398v0.708h-2.626v-0.708H147.875z"/>
	<path d="M148.633,74.889v-0.6l0.647-0.888c0.936-1.295,2.027-2.758,2.027-4.222c0-0.863-0.372-1.391-1.104-1.391
		c-0.563,0-0.936,0.3-1.127,0.432l-0.228-0.695c0.264-0.228,0.815-0.528,1.523-0.528c1.295,0,1.847,0.959,1.847,2.135
		c0,1.463-0.948,2.878-1.919,4.198l-0.516,0.72v0.024h2.59v0.815H148.633z"/>
	<path d="M153.061,76.4c0.251-0.696,0.576-1.967,0.695-2.794l1.043-0.12c-0.276,0.972-0.779,2.303-1.104,2.831L153.061,76.4z"/>
	<path d="M159.478,70.979c0,2.842-0.899,4.005-2.027,4.005c-1.211,0-1.943-1.439-1.943-3.981c0-2.626,0.78-4.006,2.051-4.006
		C158.818,66.997,159.478,68.496,159.478,70.979z M156.432,70.991c-0.012,1.883,0.312,3.202,1.079,3.202
		c0.744,0,1.043-1.331,1.043-3.202c0-1.823-0.3-3.202-1.043-3.202C156.756,67.789,156.432,69.108,156.432,70.991z"/>
	<path d="M160.104,76.328c0.684-1.08,1.248-2.723,1.248-4.881c0-2.159-0.564-3.778-1.248-4.857h0.72
		c0.624,0.887,1.307,2.482,1.307,4.857c-0.024,2.375-0.684,3.958-1.307,4.881H160.104z"/>
</g>
<g>
	<path d="M171.26,94.936c-0.684,1.079-1.247,2.698-1.247,4.881c0,2.146,0.563,3.766,1.247,4.857h-0.72
		c-0.624-0.912-1.307-2.519-1.307-4.87c0.024-2.351,0.684-3.97,1.307-4.869H171.26z"/>
	<path d="M174.548,99.745v0.708h-2.626v-0.708H174.548z"/>
	<path d="M177.164,96.375h-0.024l-1.295,0.744l-0.18-0.72l1.643-0.959h0.756v7.796h-0.899V96.375z"/>
	<path d="M179.733,104.747c0.251-0.696,0.576-1.967,0.695-2.794l1.043-0.12c-0.276,0.972-0.779,2.303-1.104,2.831L179.733,104.747z"
		/>
	<path d="M184.843,99.745v0.708h-2.626v-0.708H184.843z"/>
	<path d="M187.46,96.375h-0.024l-1.295,0.744l-0.18-0.72l1.643-0.959h0.756v7.796h-0.899V96.375z"/>
	<path d="M190.125,104.675c0.684-1.08,1.248-2.723,1.248-4.881c0-2.159-0.564-3.778-1.248-4.857h0.72
		c0.624,0.887,1.307,2.482,1.307,4.857c-0.024,2.375-0.684,3.958-1.307,4.881H190.125z"/>
</g>
<rect x="332.252" y="113.886" fill="none" stroke="#000000" stroke-miterlimit="10" width="28.347" height="28.348"/>
<rect x="332.252" y="57.193" fill="none" stroke="#000000" stroke-miterlimit="10" width="28.347" height="28.348"/>
<rect x="332.252" y="85.541" fill="none" stroke="#000000" stroke-miterlimit="10" width="28.347" height="28.346"/>
<rect x="303.905" y="57.193" fill="none" stroke="#000000" stroke-miterlimit="10" width="28.347" height="28.348"/>
<rect x="360.599" y="85.541" fill="none" stroke="#000000" stroke-miterlimit="10" width="28.347" height="28.346"/>
<g>
	<path d="M340.34,66.589c-0.684,1.079-1.247,2.698-1.247,4.881c0,2.146,0.563,3.766,1.247,4.857h-0.72
		c-0.623-0.912-1.307-2.519-1.307-4.87c0.023-2.351,0.684-3.97,1.307-4.869H340.34z"/>
	<path d="M344.935,70.979c0,2.842-0.898,4.005-2.026,4.005c-1.211,0-1.942-1.439-1.942-3.981c0-2.626,0.779-4.006,2.051-4.006
		C344.275,66.997,344.935,68.496,344.935,70.979z M341.889,70.991c-0.012,1.883,0.312,3.202,1.079,3.202
		c0.744,0,1.044-1.331,1.044-3.202c0-1.823-0.3-3.202-1.044-3.202C342.213,67.789,341.889,69.108,341.889,70.991z"/>
	<path d="M345.466,76.4c0.251-0.696,0.575-1.967,0.695-2.794l1.043-0.12c-0.275,0.972-0.779,2.303-1.104,2.831L345.466,76.4z"/>
	<path d="M351.882,70.979c0,2.842-0.898,4.005-2.026,4.005c-1.211,0-1.942-1.439-1.942-3.981c0-2.626,0.779-4.006,2.051-4.006
		C351.223,66.997,351.882,68.496,351.882,70.979z M348.836,70.991c-0.012,1.883,0.312,3.202,1.079,3.202
		c0.744,0,1.044-1.331,1.044-3.202c0-1.823-0.3-3.202-1.044-3.202C349.16,67.789,348.836,69.108,348.836,70.991z"/>
	<path d="M352.509,76.328c0.684-1.08,1.248-2.723,1.248-4.881c0-2.159-0.564-3.778-1.248-4.857h0.72
		c0.624,0.887,1.308,2.482,1.308,4.857c-0.024,2.375-0.684,3.958-1.308,4.881H352.509z"/>
</g>
<g>
	<path d="M310.319,66.589c-0.684,1.079-1.247,2.698-1.247,4.881c0,2.146,0.563,3.766,1.247,4.857h-0.72
		c-0.624-0.912-1.308-2.519-1.308-4.87c0.024-2.351,0.684-3.97,1.308-4.869H310.319z"/>
	<path d="M313.607,71.398v0.708h-2.626v-0.708H313.607z"/>
	<path d="M316.224,68.028H316.2l-1.296,0.744l-0.181-0.72l1.644-0.959h0.756v7.796h-0.899V68.028z"/>
	<path d="M318.793,76.4c0.251-0.696,0.575-1.967,0.695-2.794l1.044-0.12c-0.276,0.972-0.779,2.303-1.104,2.831L318.793,76.4z"/>
	<path d="M325.21,70.979c0,2.842-0.899,4.005-2.027,4.005c-1.211,0-1.942-1.439-1.942-3.981c0-2.626,0.78-4.006,2.051-4.006
		C324.55,66.997,325.21,68.496,325.21,70.979z M322.164,70.991c-0.013,1.883,0.312,3.202,1.079,3.202
		c0.744,0,1.043-1.331,1.043-3.202c0-1.823-0.299-3.202-1.043-3.202C322.487,67.789,322.164,69.108,322.164,70.991z"/>
	<path d="M325.837,76.328c0.684-1.08,1.247-2.723,1.247-4.881c0-2.159-0.563-3.778-1.247-4.857h0.719
		c0.624,0.887,1.308,2.482,1.308,4.857c-0.024,2.375-0.684,3.958-1.308,4.881H325.837z"/>
</g>
<g>
	<path d="M337.511,94.936c-0.684,1.079-1.247,2.698-1.247,4.881c0,2.146,0.563,3.766,1.247,4.857h-0.72
		c-0.624-0.912-1.308-2.519-1.308-4.87c0.024-2.351,0.684-3.97,1.308-4.869H337.511z"/>
	<path d="M342.106,99.326c0,2.842-0.9,4.005-2.027,4.005c-1.211,0-1.943-1.439-1.943-3.981c0-2.626,0.78-4.006,2.051-4.006
		C341.446,95.344,342.106,96.843,342.106,99.326z M339.06,99.337c-0.012,1.883,0.313,3.202,1.08,3.202
		c0.743,0,1.043-1.331,1.043-3.202c0-1.823-0.3-3.202-1.043-3.202C339.384,96.135,339.06,97.455,339.06,99.337z"/>
	<path d="M342.636,104.747c0.252-0.696,0.576-1.967,0.695-2.794l1.044-0.12c-0.276,0.972-0.779,2.303-1.104,2.831L342.636,104.747z"
		/>
	<path d="M347.746,99.745v0.708h-2.626v-0.708H347.746z"/>
	<path d="M350.362,96.375h-0.023l-1.295,0.744l-0.181-0.72l1.644-0.959h0.756v7.796h-0.9V96.375z"/>
	<path d="M353.028,104.675c0.684-1.08,1.247-2.723,1.247-4.881c0-2.159-0.563-3.778-1.247-4.857h0.719
		c0.624,0.887,1.308,2.482,1.308,4.857c-0.024,2.375-0.684,3.958-1.308,4.881H353.028z"/>
</g>
<g>
	<path d="M338.666,123.283c-0.684,1.079-1.247,2.698-1.247,4.881c0,2.146,0.563,3.766,1.247,4.857h-0.72
		c-0.623-0.912-1.307-2.519-1.307-4.87c0.023-2.351,0.684-3.97,1.307-4.869H338.666z"/>
	<path d="M343.261,127.672c0,2.842-0.898,4.005-2.026,4.005c-1.211,0-1.942-1.439-1.942-3.981c0-2.626,0.779-4.006,2.051-4.006
		C342.602,123.69,343.261,125.189,343.261,127.672z M340.215,127.684c-0.012,1.883,0.312,3.202,1.079,3.202
		c0.744,0,1.044-1.331,1.044-3.202c0-1.823-0.3-3.202-1.044-3.202C340.539,124.482,340.215,125.801,340.215,127.684z"/>
	<path d="M343.792,133.093c0.251-0.696,0.575-1.967,0.695-2.794l1.043-0.12c-0.275,0.972-0.779,2.303-1.104,2.831L343.792,133.093z"
		/>
	<path d="M348.901,128.092v0.708h-2.627v-0.708H348.901z"/>
	<path d="M349.659,131.582v-0.6l0.647-0.888c0.936-1.295,2.026-2.758,2.026-4.222c0-0.863-0.371-1.391-1.104-1.391
		c-0.563,0-0.936,0.3-1.127,0.432l-0.228-0.695c0.264-0.228,0.815-0.528,1.522-0.528c1.296,0,1.848,0.959,1.848,2.135
		c0,1.463-0.947,2.878-1.919,4.198l-0.516,0.72v0.024h2.591v0.815H349.659z"/>
	<path d="M354.183,133.021c0.684-1.08,1.248-2.723,1.248-4.881c0-2.159-0.564-3.778-1.248-4.857h0.721
		c0.623,0.887,1.307,2.482,1.307,4.857c-0.023,2.375-0.684,3.958-1.307,4.881H354.183z"/>
</g>
<g>
	<path d="M365.339,94.936c-0.684,1.079-1.247,2.698-1.247,4.881c0,2.146,0.563,3.766,1.247,4.857h-0.72
		c-0.624-0.912-1.308-2.519-1.308-4.87c0.024-2.351,0.684-3.97,1.308-4.869H365.339z"/>
	<path d="M368.627,99.745v0.708h-2.626v-0.708H368.627z"/>
	<path d="M371.243,96.375h-0.023l-1.296,0.744l-0.181-0.72l1.644-0.959h0.756v7.796h-0.899V96.375z"/>
	<path d="M373.813,104.747c0.251-0.696,0.575-1.967,0.695-2.794l1.044-0.12c-0.276,0.972-0.779,2.303-1.104,2.831L373.813,104.747z"
		/>
	<path d="M378.923,99.745v0.708h-2.627v-0.708H378.923z"/>
	<path d="M381.539,96.375h-0.024l-1.295,0.744l-0.18-0.72l1.643-0.959h0.756v7.796h-0.899V96.375z"/>
	<path d="M384.204,104.675c0.684-1.08,1.247-2.723,1.247-4.881c0-2.159-0.563-3.778-1.247-4.857h0.719
		c0.624,0.887,1.308,2.482,1.308,4.857c-0.024,2.375-0.684,3.958-1.308,4.881H384.204z"/>
</g>
<rect x="542.17" y="57.193" fill="none" stroke="#000000" stroke-miterlimit="10" width="28.348" height="28.347"/>
<rect x="485.477" y="57.193" fill="none" stroke="#000000" stroke-miterlimit="10" width="28.348" height="28.347"/>
<rect x="513.824" y="57.193" fill="none" stroke="#000000" stroke-miterlimit="10" width="28.346" height="28.347"/>
<rect x="485.477" y="85.54" fill="none" stroke="#000000" stroke-miterlimit="10" width="28.348" height="28.347"/>
<rect x="513.824" y="28.847" fill="none" stroke="#000000" stroke-miterlimit="10" width="28.346" height="28.347"/>
<g>
	<path d="M493.565,66.589c-0.684,1.079-1.248,2.698-1.248,4.881c0,2.146,0.564,3.766,1.248,4.857h-0.721
		c-0.623-0.912-1.307-2.519-1.307-4.87c0.023-2.351,0.684-3.97,1.307-4.869H493.565z"/>
	<path d="M498.16,70.979c0,2.842-0.899,4.005-2.026,4.005c-1.211,0-1.943-1.439-1.943-3.981c0-2.626,0.779-4.006,2.051-4.006
		C497.501,66.997,498.16,68.496,498.16,70.979z M495.114,70.991c-0.012,1.883,0.312,3.202,1.079,3.202
		c0.743,0,1.044-1.331,1.044-3.202c0-1.823-0.301-3.202-1.044-3.202C495.438,67.789,495.114,69.108,495.114,70.991z"/>
	<path d="M498.69,76.4c0.252-0.696,0.576-1.967,0.695-2.794l1.043-0.12c-0.275,0.972-0.779,2.303-1.104,2.831L498.69,76.4z"/>
	<path d="M505.107,70.979c0,2.842-0.899,4.005-2.026,4.005c-1.211,0-1.943-1.439-1.943-3.981c0-2.626,0.779-4.006,2.051-4.006
		C504.448,66.997,505.107,68.496,505.107,70.979z M502.062,70.991c-0.012,1.883,0.312,3.202,1.079,3.202
		c0.743,0,1.044-1.331,1.044-3.202c0-1.823-0.301-3.202-1.044-3.202C502.386,67.789,502.062,69.108,502.062,70.991z"/>
	<path d="M505.733,76.328c0.684-1.08,1.248-2.723,1.248-4.881c0-2.159-0.564-3.778-1.248-4.857h0.721
		c0.623,0.887,1.307,2.482,1.307,4.857c-0.023,2.375-0.684,3.958-1.307,4.881H505.733z"/>
</g>
<g>
	<path d="M521.911,66.589c-0.684,1.079-1.246,2.698-1.246,4.881c0,2.146,0.563,3.766,1.246,4.857h-0.719
		c-0.624-0.912-1.308-2.519-1.308-4.87c0.024-2.351,0.684-3.97,1.308-4.869H521.911z"/>
	<path d="M524.468,68.028h-0.023l-1.295,0.744l-0.181-0.72l1.644-0.959h0.756v7.796h-0.9V68.028z"/>
	<path d="M527.037,76.4c0.251-0.696,0.575-1.967,0.695-2.794l1.044-0.12c-0.276,0.972-0.779,2.303-1.104,2.831L527.037,76.4z"/>
	<path d="M533.454,70.979c0,2.842-0.899,4.005-2.027,4.005c-1.211,0-1.942-1.439-1.942-3.981c0-2.626,0.78-4.006,2.051-4.006
		C532.794,66.997,533.454,68.496,533.454,70.979z M530.407,70.991c-0.012,1.883,0.313,3.202,1.08,3.202
		c0.744,0,1.043-1.331,1.043-3.202c0-1.823-0.299-3.202-1.043-3.202C530.731,67.789,530.407,69.108,530.407,70.991z"/>
	<path d="M534.081,76.328c0.684-1.08,1.247-2.723,1.247-4.881c0-2.159-0.563-3.778-1.247-4.857h0.719
		c0.624,0.887,1.308,2.482,1.308,4.857c-0.024,2.375-0.684,3.958-1.308,4.881H534.081z"/>
</g>
<g>
	<path d="M521.911,38.243c-0.684,1.079-1.246,2.698-1.246,4.881c0,2.146,0.563,3.766,1.246,4.857h-0.719
		c-0.624-0.912-1.308-2.519-1.308-4.87c0.024-2.351,0.684-3.97,1.308-4.869H521.911z"/>
	<path d="M524.468,39.682h-0.023l-1.295,0.744l-0.181-0.72l1.644-0.959h0.756v7.796h-0.9V39.682z"/>
	<path d="M527.037,48.053c0.251-0.696,0.575-1.967,0.695-2.794l1.044-0.12c-0.276,0.972-0.779,2.303-1.104,2.831L527.037,48.053z"/>
	<path d="M531.415,39.682h-0.023l-1.295,0.744l-0.181-0.72l1.644-0.959h0.756v7.796h-0.9V39.682z"/>
	<path d="M534.081,47.981c0.684-1.08,1.247-2.723,1.247-4.881c0-2.159-0.563-3.778-1.247-4.857h0.719
		c0.624,0.887,1.308,2.482,1.308,4.857c-0.024,2.375-0.684,3.958-1.308,4.881H534.081z"/>
</g>
<g>
	<path d="M491.892,94.936c-0.684,1.079-1.248,2.698-1.248,4.881c0,2.146,0.564,3.766,1.248,4.857h-0.721
		c-0.623-0.912-1.307-2.519-1.307-4.87c0.023-2.351,0.684-3.97,1.307-4.869H491.892z"/>
	<path d="M496.486,99.326c0,2.842-0.899,4.005-2.026,4.005c-1.211,0-1.943-1.439-1.943-3.981c0-2.626,0.779-4.006,2.051-4.006
		C495.827,95.344,496.486,96.843,496.486,99.326z M493.44,99.337c-0.012,1.883,0.312,3.202,1.079,3.202
		c0.743,0,1.044-1.331,1.044-3.202c0-1.823-0.301-3.202-1.044-3.202C493.765,96.135,493.44,97.455,493.44,99.337z"/>
	<path d="M497.017,104.747c0.252-0.696,0.576-1.967,0.695-2.794l1.043-0.12c-0.275,0.972-0.779,2.303-1.104,2.831L497.017,104.747z"
		/>
	<path d="M502.126,99.745v0.708H499.5v-0.708H502.126z"/>
	<path d="M504.743,96.375h-0.023l-1.296,0.744l-0.181-0.72l1.645-0.959h0.755v7.796h-0.899V96.375z"/>
	<path d="M507.408,104.675c0.684-1.08,1.247-2.723,1.247-4.881c0-2.159-0.563-3.778-1.247-4.857h0.72
		c0.623,0.887,1.307,2.482,1.307,4.857c-0.023,2.375-0.684,3.958-1.307,4.881H507.408z"/>
</g>
<g>
	<path d="M550.259,66.589c-0.684,1.079-1.248,2.698-1.248,4.881c0,2.146,0.564,3.766,1.248,4.857h-0.721
		c-0.623-0.912-1.307-2.519-1.307-4.87c0.023-2.351,0.684-3.97,1.307-4.869H550.259z"/>
	<path d="M550.956,74.889v-0.6l0.647-0.888c0.936-1.295,2.026-2.758,2.026-4.222c0-0.863-0.371-1.391-1.104-1.391
		c-0.563,0-0.936,0.3-1.127,0.432l-0.228-0.695c0.264-0.228,0.815-0.528,1.522-0.528c1.296,0,1.848,0.959,1.848,2.135
		c0,1.463-0.947,2.878-1.919,4.198l-0.516,0.72v0.024h2.591v0.815H550.956z"/>
	<path d="M555.384,76.4c0.252-0.696,0.576-1.967,0.695-2.794l1.043-0.12c-0.275,0.972-0.779,2.303-1.104,2.831L555.384,76.4z"/>
	<path d="M561.801,70.979c0,2.842-0.899,4.005-2.026,4.005c-1.211,0-1.943-1.439-1.943-3.981c0-2.626,0.779-4.006,2.051-4.006
		C561.142,66.997,561.801,68.496,561.801,70.979z M558.755,70.991c-0.012,1.883,0.312,3.202,1.079,3.202
		c0.743,0,1.044-1.331,1.044-3.202c0-1.823-0.301-3.202-1.044-3.202C559.079,67.789,558.755,69.108,558.755,70.991z"/>
	<path d="M562.427,76.328c0.684-1.08,1.248-2.723,1.248-4.881c0-2.159-0.564-3.778-1.248-4.857h0.721
		c0.623,0.887,1.307,2.482,1.307,4.857c-0.023,2.375-0.684,3.958-1.307,4.881H562.427z"/>
</g>
<g>
	<g>
		<polyline fill="none" stroke="#000000" stroke-miterlimit="10" points="26.468,272.679 10.98,272.679 10.98,255.666 		"/>
		<g>
			<path d="M25.571,272.679l-1.096,1.801l0.062,0.041l2.938-1.167c1.023-0.225,2.047-0.45,3.07-0.675
				c-1.023-0.225-2.047-0.45-3.07-0.675l-2.938-1.167l-0.062,0.031L25.571,272.679z"/>
		</g>
		<g>
			<path d="M10.98,256.563l-1.801,1.096l-0.041-0.062l1.167-2.938c0.225-1.023,0.45-2.047,0.675-3.07
				c0.225,1.023,0.45,2.047,0.675,3.07l1.167,2.938l-0.031,0.062L10.98,256.563z"/>
		</g>
	</g>
</g>
<g>
	<path d="M32.379,276.875l0.563,1.271c0.168,0.372,0.276,0.66,0.396,0.924h0.024c0.228-0.323,0.36-0.527,0.636-0.875l1.08-1.32
		h1.139l-2.447,2.831l1.379,2.975h-1.091l-0.576-1.308c-0.204-0.432-0.288-0.659-0.42-1.031h-0.036
		c-0.167,0.275-0.348,0.54-0.6,0.888l-1.175,1.451H30.1l2.542-2.986l-1.343-2.819H32.379z"/>
</g>
<g>
	<path d="M2.087,245.785l0.576,3.118c0.132,0.672,0.204,1.104,0.264,1.535h0.024c0.156-0.372,0.324-0.78,0.624-1.427l1.487-3.226
		h1.055l-2.183,4.414c-0.624,1.247-1.211,2.267-2.003,3.046c-0.647,0.66-1.355,0.936-1.679,1.007L0,253.389
		c0.251-0.084,0.671-0.24,1.067-0.552c0.396-0.3,0.815-0.768,1.127-1.343c0.048-0.096,0.048-0.156,0.024-0.264l-1.164-5.445H2.087z"
		/>
</g>
<rect x="46.693" y="179.26" fill="none" stroke="#000000" stroke-miterlimit="10" width="28.347" height="28.347"/>
<rect x="46.693" y="235.954" fill="none" stroke="#000000" stroke-miterlimit="10" width="28.347" height="28.347"/>
<rect x="46.693" y="207.607" fill="none" stroke="#000000" stroke-miterlimit="10" width="28.347" height="28.347"/>
<rect x="18.347" y="235.954" fill="none" stroke="#000000" stroke-miterlimit="10" width="28.347" height="28.347"/>
<rect x="75.04" y="207.607" fill="none" stroke="#000000" stroke-miterlimit="10" width="28.347" height="28.347"/>
<g>
	<path d="M54.781,245.35c-0.684,1.079-1.247,2.698-1.247,4.881c0,2.146,0.563,3.766,1.247,4.857h-0.72
		c-0.624-0.912-1.307-2.519-1.307-4.87c0.024-2.351,0.684-3.97,1.307-4.869H54.781z"/>
	<path d="M59.376,249.739c0,2.842-0.899,4.005-2.027,4.005c-1.211,0-1.943-1.439-1.943-3.981c0-2.626,0.78-4.006,2.051-4.006
		C58.717,245.757,59.376,247.256,59.376,249.739z M56.33,249.751c-0.012,1.883,0.312,3.202,1.08,3.202
		c0.744,0,1.043-1.331,1.043-3.202c0-1.823-0.3-3.202-1.043-3.202C56.654,246.549,56.33,247.868,56.33,249.751z"/>
	<path d="M59.907,255.16c0.251-0.696,0.576-1.967,0.695-2.794l1.043-0.12c-0.276,0.972-0.779,2.303-1.104,2.831L59.907,255.16z"/>
	<path d="M66.324,249.739c0,2.842-0.899,4.005-2.027,4.005c-1.211,0-1.943-1.439-1.943-3.981c0-2.626,0.78-4.006,2.051-4.006
		C65.664,245.757,66.324,247.256,66.324,249.739z M63.277,249.751c-0.012,1.883,0.312,3.202,1.08,3.202
		c0.744,0,1.043-1.331,1.043-3.202c0-1.823-0.3-3.202-1.043-3.202C63.602,246.549,63.277,247.868,63.277,249.751z"/>
	<path d="M66.95,255.088c0.684-1.08,1.248-2.723,1.248-4.881c0-2.159-0.564-3.778-1.248-4.857h0.72
		c0.624,0.887,1.307,2.482,1.307,4.857c-0.024,2.375-0.684,3.958-1.307,4.881H66.95z"/>
</g>
<g>
	<path d="M83.128,217.003c-0.684,1.079-1.247,2.698-1.247,4.881c0,2.146,0.563,3.766,1.247,4.857h-0.72
		c-0.624-0.912-1.307-2.519-1.307-4.87c0.024-2.351,0.684-3.97,1.307-4.869H83.128z"/>
	<path d="M85.685,218.442h-0.024l-1.295,0.744l-0.18-0.72l1.643-0.959h0.756v7.796h-0.899V218.442z"/>
	<path d="M88.253,226.813c0.251-0.696,0.576-1.967,0.695-2.794l1.043-0.12c-0.276,0.972-0.779,2.303-1.104,2.831L88.253,226.813z"/>
	<path d="M92.632,218.442h-0.024l-1.295,0.744l-0.18-0.72l1.643-0.959h0.756v7.796h-0.899V218.442z"/>
	<path d="M95.297,226.742c0.684-1.08,1.248-2.723,1.248-4.881c0-2.159-0.564-3.778-1.248-4.857h0.72
		c0.624,0.887,1.307,2.482,1.307,4.857c-0.024,2.375-0.684,3.958-1.307,4.881H95.297z"/>
</g>
<g>
	<path d="M24.761,245.35c-0.684,1.079-1.247,2.698-1.247,4.881c0,2.146,0.563,3.766,1.247,4.857h-0.72
		c-0.624-0.912-1.307-2.519-1.307-4.87c0.024-2.351,0.684-3.97,1.307-4.869H24.761z"/>
	<path d="M28.049,250.159v0.708h-2.626v-0.708H28.049z"/>
	<path d="M30.665,246.789h-0.024l-1.295,0.744l-0.18-0.72l1.643-0.959h0.756v7.796h-0.899V246.789z"/>
	<path d="M33.234,255.16c0.251-0.696,0.576-1.967,0.695-2.794l1.043-0.12c-0.276,0.972-0.779,2.303-1.104,2.831L33.234,255.16z"/>
	<path d="M39.651,249.739c0,2.842-0.899,4.005-2.027,4.005c-1.211,0-1.943-1.439-1.943-3.981c0-2.626,0.78-4.006,2.051-4.006
		C38.992,245.757,39.651,247.256,39.651,249.739z M36.605,249.751c-0.012,1.883,0.312,3.202,1.079,3.202
		c0.744,0,1.043-1.331,1.043-3.202c0-1.823-0.3-3.202-1.043-3.202C36.929,246.549,36.605,247.868,36.605,249.751z"/>
	<path d="M40.278,255.088c0.684-1.08,1.248-2.723,1.248-4.881c0-2.159-0.564-3.778-1.248-4.857h0.72
		c0.624,0.887,1.307,2.482,1.307,4.857c-0.024,2.375-0.684,3.958-1.307,4.881H40.278z"/>
</g>
<g>
	<path d="M54.781,217.003c-0.684,1.079-1.247,2.698-1.247,4.881c0,2.146,0.563,3.766,1.247,4.857h-0.72
		c-0.624-0.912-1.307-2.519-1.307-4.87c0.024-2.351,0.684-3.97,1.307-4.869H54.781z"/>
	<path d="M59.376,221.393c0,2.842-0.899,4.005-2.027,4.005c-1.211,0-1.943-1.439-1.943-3.981c0-2.626,0.78-4.006,2.051-4.006
		C58.717,217.411,59.376,218.91,59.376,221.393z M56.33,221.404c-0.012,1.883,0.312,3.202,1.08,3.202
		c0.744,0,1.043-1.331,1.043-3.202c0-1.823-0.3-3.202-1.043-3.202C56.654,218.202,56.33,219.521,56.33,221.404z"/>
	<path d="M59.907,226.813c0.251-0.696,0.576-1.967,0.695-2.794l1.043-0.12c-0.276,0.972-0.779,2.303-1.104,2.831L59.907,226.813z"/>
	<path d="M64.285,218.442h-0.024l-1.295,0.744l-0.18-0.72l1.643-0.959h0.756v7.796h-0.899V218.442z"/>
	<path d="M66.95,226.742c0.684-1.08,1.248-2.723,1.248-4.881c0-2.159-0.564-3.778-1.248-4.857h0.72
		c0.624,0.887,1.307,2.482,1.307,4.857c-0.024,2.375-0.684,3.958-1.307,4.881H66.95z"/>
</g>
<g>
	<path d="M54.781,188.656c-0.684,1.079-1.247,2.698-1.247,4.881c0,2.146,0.563,3.766,1.247,4.857h-0.72
		c-0.624-0.912-1.307-2.519-1.307-4.87c0.024-2.351,0.684-3.97,1.307-4.869H54.781z"/>
	<path d="M59.376,193.046c0,2.842-0.899,4.005-2.027,4.005c-1.211,0-1.943-1.439-1.943-3.981c0-2.626,0.78-4.006,2.051-4.006
		C58.717,189.064,59.376,190.563,59.376,193.046z M56.33,193.058c-0.012,1.883,0.312,3.202,1.08,3.202
		c0.744,0,1.043-1.331,1.043-3.202c0-1.823-0.3-3.202-1.043-3.202C56.654,189.855,56.33,191.175,56.33,193.058z"/>
	<path d="M59.907,198.467c0.251-0.696,0.576-1.967,0.695-2.794l1.043-0.12c-0.276,0.972-0.779,2.303-1.104,2.831L59.907,198.467z"/>
	<path d="M62.426,196.956v-0.6l0.647-0.888c0.936-1.295,2.027-2.758,2.027-4.222c0-0.863-0.372-1.391-1.104-1.391
		c-0.563,0-0.936,0.3-1.127,0.432l-0.228-0.695c0.264-0.228,0.815-0.528,1.523-0.528c1.295,0,1.847,0.959,1.847,2.135
		c0,1.463-0.948,2.878-1.919,4.198l-0.516,0.72v0.024h2.59v0.815H62.426z"/>
	<path d="M66.95,198.395c0.684-1.08,1.248-2.723,1.248-4.881c0-2.159-0.564-3.778-1.248-4.857h0.72
		c0.624,0.887,1.307,2.482,1.307,4.857c-0.024,2.375-0.684,3.958-1.307,4.881H66.95z"/>
</g>
<rect x="251.56" y="235.954" fill="none" stroke="#000000" stroke-miterlimit="10" width="28.348" height="28.347"/>
<rect x="194.867" y="235.954" fill="none" stroke="#000000" stroke-miterlimit="10" width="28.347" height="28.347"/>
<rect x="223.214" y="235.954" fill="none" stroke="#000000" stroke-miterlimit="10" width="28.346" height="28.347"/>
<rect x="194.867" y="207.607" fill="none" stroke="#000000" stroke-miterlimit="10" width="28.347" height="28.347"/>
<rect x="223.214" y="264.3" fill="none" stroke="#000000" stroke-miterlimit="10" width="28.346" height="28.346"/>
<g>
	<path d="M202.955,245.35c-0.684,1.079-1.247,2.698-1.247,4.881c0,2.146,0.563,3.766,1.247,4.857h-0.72
		c-0.624-0.912-1.307-2.519-1.307-4.87c0.024-2.351,0.684-3.97,1.307-4.869H202.955z"/>
	<path d="M207.55,249.739c0,2.842-0.899,4.005-2.027,4.005c-1.211,0-1.943-1.439-1.943-3.981c0-2.626,0.78-4.006,2.051-4.006
		C206.89,245.757,207.55,247.256,207.55,249.739z M204.503,249.751c-0.012,1.883,0.312,3.202,1.08,3.202
		c0.744,0,1.043-1.331,1.043-3.202c0-1.823-0.3-3.202-1.043-3.202C204.828,246.549,204.503,247.868,204.503,249.751z"/>
	<path d="M208.08,255.16c0.251-0.696,0.576-1.967,0.695-2.794l1.043-0.12c-0.276,0.972-0.779,2.303-1.104,2.831L208.08,255.16z"/>
	<path d="M214.497,249.739c0,2.842-0.899,4.005-2.027,4.005c-1.211,0-1.943-1.439-1.943-3.981c0-2.626,0.78-4.006,2.051-4.006
		C213.837,245.757,214.497,247.256,214.497,249.739z M211.451,249.751c-0.012,1.883,0.312,3.202,1.08,3.202
		c0.744,0,1.043-1.331,1.043-3.202c0-1.823-0.3-3.202-1.043-3.202C211.775,246.549,211.451,247.868,211.451,249.751z"/>
	<path d="M215.124,255.088c0.684-1.08,1.248-2.723,1.248-4.881c0-2.159-0.564-3.778-1.248-4.857h0.72
		c0.624,0.887,1.307,2.482,1.307,4.857c-0.024,2.375-0.684,3.958-1.307,4.881H215.124z"/>
</g>
<g>
	<path d="M202.955,217.003c-0.684,1.079-1.247,2.698-1.247,4.881c0,2.146,0.563,3.766,1.247,4.857h-0.72
		c-0.624-0.912-1.307-2.519-1.307-4.87c0.024-2.351,0.684-3.97,1.307-4.869H202.955z"/>
	<path d="M205.511,218.442h-0.024l-1.295,0.744l-0.18-0.72l1.643-0.959h0.756v7.796h-0.899V218.442z"/>
	<path d="M208.08,226.813c0.251-0.696,0.576-1.967,0.695-2.794l1.043-0.12c-0.276,0.972-0.779,2.303-1.104,2.831L208.08,226.813z"/>
	<path d="M214.497,221.393c0,2.842-0.899,4.005-2.027,4.005c-1.211,0-1.943-1.439-1.943-3.981c0-2.626,0.78-4.006,2.051-4.006
		C213.837,217.411,214.497,218.91,214.497,221.393z M211.451,221.404c-0.012,1.883,0.312,3.202,1.08,3.202
		c0.744,0,1.043-1.331,1.043-3.202c0-1.823-0.3-3.202-1.043-3.202C211.775,218.202,211.451,219.521,211.451,221.404z"/>
	<path d="M215.124,226.742c0.684-1.08,1.248-2.723,1.248-4.881c0-2.159-0.564-3.778-1.248-4.857h0.72
		c0.624,0.887,1.307,2.482,1.307,4.857c-0.024,2.375-0.684,3.958-1.307,4.881H215.124z"/>
</g>
<g>
	<path d="M231.301,245.35c-0.684,1.079-1.247,2.698-1.247,4.881c0,2.146,0.563,3.766,1.247,4.857h-0.72
		c-0.624-0.912-1.307-2.519-1.307-4.87c0.024-2.351,0.684-3.97,1.307-4.869H231.301z"/>
	<path d="M235.896,249.739c0,2.842-0.899,4.005-2.027,4.005c-1.211,0-1.943-1.439-1.943-3.981c0-2.626,0.78-4.006,2.051-4.006
		C235.237,245.757,235.896,247.256,235.896,249.739z M232.85,249.751c-0.012,1.883,0.312,3.202,1.08,3.202
		c0.744,0,1.043-1.331,1.043-3.202c0-1.823-0.3-3.202-1.043-3.202C233.174,246.549,232.85,247.868,232.85,249.751z"/>
	<path d="M236.427,255.16c0.251-0.696,0.576-1.967,0.695-2.794l1.043-0.12c-0.276,0.972-0.779,2.303-1.104,2.831L236.427,255.16z"/>
	<path d="M240.805,246.789h-0.024l-1.295,0.744l-0.18-0.72l1.643-0.959h0.756v7.796h-0.899V246.789z"/>
	<path d="M243.47,255.088c0.684-1.08,1.248-2.723,1.248-4.881c0-2.159-0.564-3.778-1.248-4.857h0.72
		c0.624,0.887,1.307,2.482,1.307,4.857c-0.024,2.375-0.684,3.958-1.307,4.881H243.47z"/>
</g>
<g>
	<path d="M259.648,245.35c-0.684,1.079-1.247,2.698-1.247,4.881c0,2.146,0.563,3.766,1.247,4.857h-0.72
		c-0.624-0.912-1.307-2.519-1.307-4.87c0.024-2.351,0.684-3.97,1.307-4.869H259.648z"/>
	<path d="M260.346,253.649v-0.6l0.647-0.888c0.936-1.295,2.027-2.758,2.027-4.222c0-0.863-0.372-1.391-1.104-1.391
		c-0.563,0-0.936,0.3-1.127,0.432l-0.228-0.695c0.264-0.228,0.815-0.528,1.523-0.528c1.295,0,1.847,0.959,1.847,2.135
		c0,1.463-0.948,2.878-1.919,4.198l-0.516,0.72v0.024h2.59v0.815H260.346z"/>
	<path d="M264.773,255.16c0.251-0.696,0.576-1.967,0.695-2.794l1.043-0.12c-0.276,0.972-0.779,2.303-1.104,2.831L264.773,255.16z"/>
	<path d="M271.19,249.739c0,2.842-0.899,4.005-2.027,4.005c-1.211,0-1.943-1.439-1.943-3.981c0-2.626,0.78-4.006,2.051-4.006
		C270.531,245.757,271.19,247.256,271.19,249.739z M268.144,249.751c-0.012,1.883,0.312,3.202,1.08,3.202
		c0.744,0,1.043-1.331,1.043-3.202c0-1.823-0.3-3.202-1.043-3.202C268.468,246.549,268.144,247.868,268.144,249.751z"/>
	<path d="M271.817,255.088c0.684-1.08,1.248-2.723,1.248-4.881c0-2.159-0.564-3.778-1.248-4.857h0.72
		c0.624,0.887,1.307,2.482,1.307,4.857c-0.024,2.375-0.684,3.958-1.307,4.881H271.817z"/>
</g>
<g>
	<path d="M229.627,273.696c-0.684,1.079-1.247,2.698-1.247,4.882c0,2.146,0.563,3.766,1.247,4.857h-0.72
		c-0.624-0.912-1.307-2.52-1.307-4.87c0.024-2.351,0.684-3.97,1.307-4.869H229.627z"/>
	<path d="M232.184,275.135h-0.024l-1.295,0.744l-0.18-0.72l1.643-0.959h0.756v7.796h-0.899V275.135z"/>
	<path d="M234.753,283.507c0.251-0.696,0.576-1.967,0.695-2.794l1.043-0.121c-0.276,0.973-0.779,2.303-1.104,2.831L234.753,283.507z
		"/>
	<path d="M239.863,278.506v0.707h-2.626v-0.707H239.863z"/>
	<path d="M242.479,275.135h-0.024l-1.295,0.744l-0.18-0.72l1.644-0.959h0.755v7.796h-0.899V275.135z"/>
	<path d="M245.145,283.436c0.684-1.08,1.248-2.723,1.248-4.882s-0.564-3.778-1.248-4.857h0.72c0.624,0.887,1.307,2.482,1.307,4.857
		c-0.024,2.374-0.684,3.958-1.307,4.882H245.145z"/>
</g>
<rect x="332.251" y="292.646" fill="none" stroke="#000000" stroke-miterlimit="10" width="28.348" height="28.348"/>
<rect x="332.251" y="235.953" fill="none" stroke="#000000" stroke-miterlimit="10" width="28.348" height="28.348"/>
<rect x="332.251" y="264.3" fill="none" stroke="#000000" stroke-miterlimit="10" width="28.348" height="28.346"/>
<rect x="360.599" y="235.953" fill="none" stroke="#000000" stroke-miterlimit="10" width="28.346" height="28.348"/>
<rect x="303.905" y="264.3" fill="none" stroke="#000000" stroke-miterlimit="10" width="28.346" height="28.346"/>
<g>
	<path d="M340.339,245.349c-0.684,1.079-1.246,2.698-1.246,4.881c0,2.146,0.563,3.766,1.246,4.857h-0.719
		c-0.624-0.912-1.308-2.519-1.308-4.87c0.024-2.351,0.684-3.97,1.308-4.869H340.339z"/>
	<path d="M344.935,249.739c0,2.842-0.899,4.005-2.027,4.005c-1.211,0-1.942-1.439-1.942-3.981c0-2.626,0.78-4.006,2.051-4.006
		C344.274,245.757,344.935,247.256,344.935,249.739z M341.888,249.75c-0.012,1.883,0.313,3.202,1.08,3.202
		c0.744,0,1.043-1.331,1.043-3.202c0-1.823-0.299-3.202-1.043-3.202C342.212,246.548,341.888,247.868,341.888,249.75z"/>
	<path d="M345.465,255.16c0.251-0.696,0.575-1.967,0.695-2.794l1.044-0.12c-0.276,0.972-0.779,2.303-1.104,2.831L345.465,255.16z"/>
	<path d="M351.882,249.739c0,2.842-0.899,4.005-2.027,4.005c-1.211,0-1.942-1.439-1.942-3.981c0-2.626,0.78-4.006,2.051-4.006
		C351.222,245.757,351.882,247.256,351.882,249.739z M348.835,249.75c-0.012,1.883,0.313,3.202,1.08,3.202
		c0.744,0,1.043-1.331,1.043-3.202c0-1.823-0.299-3.202-1.043-3.202C349.159,246.548,348.835,247.868,348.835,249.75z"/>
	<path d="M352.509,255.088c0.684-1.08,1.247-2.723,1.247-4.881c0-2.159-0.563-3.778-1.247-4.857h0.719
		c0.624,0.887,1.308,2.482,1.308,4.857c-0.024,2.375-0.684,3.958-1.308,4.881H352.509z"/>
</g>
<g>
	<path d="M308.645,273.696c-0.684,1.079-1.247,2.698-1.247,4.881c0,2.146,0.563,3.766,1.247,4.857h-0.72
		c-0.623-0.911-1.307-2.519-1.307-4.87c0.023-2.35,0.684-3.969,1.307-4.869H308.645z"/>
	<path d="M311.933,278.505v0.708h-2.627v-0.708H311.933z"/>
	<path d="M314.549,275.135h-0.024l-1.295,0.744l-0.18-0.72l1.643-0.959h0.756v7.796h-0.899V275.135z"/>
	<path d="M317.118,283.506c0.252-0.695,0.576-1.967,0.695-2.794l1.043-0.12c-0.275,0.972-0.779,2.303-1.104,2.83L317.118,283.506z"
		/>
	<path d="M322.228,278.505v0.708h-2.626v-0.708H322.228z"/>
	<path d="M324.845,275.135h-0.023l-1.296,0.744l-0.181-0.72l1.644-0.959h0.756v7.796h-0.899V275.135z"/>
	<path d="M327.509,283.435c0.684-1.079,1.248-2.723,1.248-4.882c0-2.159-0.564-3.778-1.248-4.857h0.721
		c0.623,0.887,1.307,2.482,1.307,4.857c-0.023,2.375-0.684,3.958-1.307,4.882H327.509z"/>
</g>
<g>
	<path d="M338.665,273.696c-0.684,1.079-1.246,2.698-1.246,4.881c0,2.146,0.563,3.766,1.246,4.857h-0.719
		c-0.624-0.911-1.308-2.519-1.308-4.87c0.024-2.35,0.684-3.969,1.308-4.869H338.665z"/>
	<path d="M343.261,278.086c0,2.842-0.899,4.005-2.027,4.005c-1.211,0-1.942-1.438-1.942-3.981c0-2.626,0.78-4.006,2.051-4.006
		C342.601,274.104,343.261,275.603,343.261,278.086z M340.214,278.098c-0.012,1.883,0.313,3.201,1.08,3.201
		c0.744,0,1.043-1.33,1.043-3.201c0-1.823-0.299-3.203-1.043-3.203C340.538,274.895,340.214,276.214,340.214,278.098z"/>
	<path d="M343.791,283.506c0.251-0.695,0.575-1.967,0.695-2.794l1.044-0.12c-0.276,0.972-0.779,2.303-1.104,2.83L343.791,283.506z"
		/>
	<path d="M348.901,278.505v0.708h-2.627v-0.708H348.901z"/>
	<path d="M351.518,275.135h-0.024l-1.295,0.744l-0.18-0.72l1.643-0.959h0.756v7.796h-0.899V275.135z"/>
	<path d="M354.183,283.435c0.684-1.079,1.248-2.723,1.248-4.882c0-2.159-0.564-3.778-1.248-4.857h0.72
		c0.624,0.887,1.308,2.482,1.308,4.857c-0.024,2.375-0.684,3.958-1.308,4.882H354.183z"/>
</g>
<g>
	<path d="M338.665,302.043c-0.684,1.079-1.246,2.698-1.246,4.881c0,2.146,0.563,3.766,1.246,4.857h-0.719
		c-0.624-0.911-1.308-2.519-1.308-4.869c0.024-2.351,0.684-3.97,1.308-4.869H338.665z"/>
	<path d="M343.261,306.433c0,2.843-0.899,4.005-2.027,4.005c-1.211,0-1.942-1.438-1.942-3.98c0-2.627,0.78-4.006,2.051-4.006
		C342.601,302.451,343.261,303.949,343.261,306.433z M340.214,306.444c-0.012,1.884,0.313,3.202,1.08,3.202
		c0.744,0,1.043-1.331,1.043-3.202c0-1.823-0.299-3.202-1.043-3.202C340.538,303.242,340.214,304.562,340.214,306.444z"/>
	<path d="M343.791,311.854c0.251-0.695,0.575-1.967,0.695-2.795l1.044-0.119c-0.276,0.971-0.779,2.303-1.104,2.83L343.791,311.854z"
		/>
	<path d="M348.901,306.852v0.709h-2.627v-0.709H348.901z"/>
	<path d="M349.659,310.342v-0.6l0.646-0.887c0.936-1.295,2.027-2.759,2.027-4.223c0-0.863-0.371-1.391-1.104-1.391
		c-0.563,0-0.936,0.3-1.127,0.432l-0.229-0.695c0.264-0.229,0.816-0.527,1.523-0.527c1.295,0,1.848,0.959,1.848,2.135
		c0,1.463-0.948,2.878-1.92,4.197l-0.516,0.72v0.024h2.591v0.814H349.659z"/>
	<path d="M354.183,311.781c0.684-1.079,1.248-2.723,1.248-4.881c0-2.159-0.564-3.778-1.248-4.857h0.72
		c0.624,0.887,1.308,2.482,1.308,4.857c-0.024,2.375-0.684,3.957-1.308,4.881H354.183z"/>
</g>
<g>
	<path d="M368.687,245.349c-0.684,1.079-1.248,2.698-1.248,4.881c0,2.146,0.564,3.766,1.248,4.857h-0.721
		c-0.623-0.912-1.307-2.519-1.307-4.87c0.023-2.351,0.684-3.97,1.307-4.869H368.687z"/>
	<path d="M371.243,246.788h-0.024l-1.296,0.744l-0.18-0.72l1.643-0.959h0.756v7.796h-0.898V246.788z"/>
	<path d="M373.812,255.16c0.252-0.696,0.576-1.967,0.695-2.794l1.043-0.12c-0.275,0.972-0.779,2.303-1.104,2.831L373.812,255.16z"/>
	<path d="M380.229,249.739c0,2.842-0.899,4.005-2.026,4.005c-1.211,0-1.943-1.439-1.943-3.981c0-2.626,0.779-4.006,2.051-4.006
		C379.569,245.757,380.229,247.256,380.229,249.739z M377.183,249.75c-0.012,1.883,0.312,3.202,1.079,3.202
		c0.743,0,1.044-1.331,1.044-3.202c0-1.823-0.301-3.202-1.044-3.202C377.507,246.548,377.183,247.868,377.183,249.75z"/>
	<path d="M380.854,255.088c0.684-1.08,1.248-2.723,1.248-4.881c0-2.159-0.564-3.778-1.248-4.857h0.721
		c0.623,0.887,1.307,2.482,1.307,4.857c-0.023,2.375-0.684,3.958-1.307,4.881H380.854z"/>
</g>
<rect x="428.783" y="235.953" fill="none" stroke="#000000" stroke-miterlimit="10" width="28.348" height="28.347"/>
<rect x="485.477" y="235.953" fill="none" stroke="#000000" stroke-miterlimit="10" width="28.348" height="28.347"/>
<rect x="457.131" y="235.953" fill="none" stroke="#000000" stroke-miterlimit="10" width="28.346" height="28.347"/>
<rect x="485.477" y="264.3" fill="none" stroke="#000000" stroke-miterlimit="10" width="28.348" height="28.347"/>
<rect x="457.131" y="207.606" fill="none" stroke="#000000" stroke-miterlimit="10" width="28.346" height="28.347"/>
<g>
	<path d="M493.565,245.349c-0.684,1.079-1.248,2.698-1.248,4.881c0,2.146,0.564,3.766,1.248,4.857h-0.721
		c-0.623-0.912-1.307-2.519-1.307-4.87c0.023-2.351,0.684-3.97,1.307-4.869H493.565z"/>
	<path d="M498.16,249.739c0,2.842-0.899,4.005-2.026,4.005c-1.211,0-1.943-1.439-1.943-3.981c0-2.626,0.779-4.006,2.051-4.006
		C497.501,245.757,498.16,247.256,498.16,249.739z M495.114,249.75c-0.012,1.883,0.312,3.202,1.079,3.202
		c0.743,0,1.044-1.331,1.044-3.202c0-1.823-0.301-3.202-1.044-3.202C495.438,246.548,495.114,247.868,495.114,249.75z"/>
	<path d="M498.69,255.16c0.252-0.696,0.576-1.967,0.695-2.794l1.043-0.12c-0.275,0.972-0.779,2.303-1.104,2.831L498.69,255.16z"/>
	<path d="M505.107,249.739c0,2.842-0.899,4.005-2.026,4.005c-1.211,0-1.943-1.439-1.943-3.981c0-2.626,0.779-4.006,2.051-4.006
		C504.448,245.757,505.107,247.256,505.107,249.739z M502.062,249.75c-0.012,1.883,0.312,3.202,1.079,3.202
		c0.743,0,1.044-1.331,1.044-3.202c0-1.823-0.301-3.202-1.044-3.202C502.386,246.548,502.062,247.868,502.062,249.75z"/>
	<path d="M505.733,255.088c0.684-1.08,1.248-2.723,1.248-4.881c0-2.159-0.564-3.778-1.248-4.857h0.721
		c0.623,0.887,1.307,2.482,1.307,4.857c-0.023,2.375-0.684,3.958-1.307,4.881H505.733z"/>
</g>
<g>
	<path d="M465.218,245.349c-0.684,1.079-1.246,2.698-1.246,4.881c0,2.146,0.563,3.766,1.246,4.857h-0.719
		c-0.624-0.912-1.308-2.519-1.308-4.87c0.024-2.351,0.684-3.97,1.308-4.869H465.218z"/>
	<path d="M467.774,246.788h-0.023l-1.295,0.744l-0.181-0.72l1.644-0.959h0.756v7.796h-0.9V246.788z"/>
	<path d="M470.344,255.16c0.251-0.696,0.575-1.967,0.695-2.794l1.044-0.12c-0.276,0.972-0.779,2.303-1.104,2.831L470.344,255.16z"/>
	<path d="M476.761,249.739c0,2.842-0.899,4.005-2.027,4.005c-1.211,0-1.942-1.439-1.942-3.981c0-2.626,0.78-4.006,2.051-4.006
		C476.101,245.757,476.761,247.256,476.761,249.739z M473.714,249.75c-0.012,1.883,0.313,3.202,1.08,3.202
		c0.744,0,1.043-1.331,1.043-3.202c0-1.823-0.299-3.202-1.043-3.202C474.038,246.548,473.714,247.868,473.714,249.75z"/>
	<path d="M477.388,255.088c0.684-1.08,1.247-2.723,1.247-4.881c0-2.159-0.563-3.778-1.247-4.857h0.719
		c0.624,0.887,1.308,2.482,1.308,4.857c-0.024,2.375-0.684,3.958-1.308,4.881H477.388z"/>
</g>
<g>
	<path d="M463.544,217.002c-0.684,1.079-1.246,2.698-1.246,4.881c0,2.146,0.563,3.766,1.246,4.857h-0.719
		c-0.624-0.912-1.308-2.519-1.308-4.87c0.024-2.351,0.684-3.97,1.308-4.869H463.544z"/>
	<path d="M466.833,221.812v0.708h-2.627v-0.708H466.833z"/>
	<path d="M469.448,218.441h-0.023l-1.295,0.744l-0.181-0.72l1.644-0.959h0.756v7.796h-0.9V218.441z"/>
	<path d="M472.019,226.813c0.251-0.696,0.575-1.967,0.695-2.794l1.043-0.12c-0.275,0.972-0.779,2.303-1.104,2.831L472.019,226.813z"
		/>
	<path d="M476.396,218.441h-0.024l-1.295,0.744l-0.18-0.72l1.643-0.959h0.756v7.796h-0.899V218.441z"/>
	<path d="M479.062,226.741c0.684-1.08,1.248-2.723,1.248-4.881c0-2.159-0.564-3.778-1.248-4.857h0.72
		c0.624,0.887,1.308,2.482,1.308,4.857c-0.024,2.375-0.684,3.958-1.308,4.881H479.062z"/>
</g>
<g>
	<path d="M491.892,273.696c-0.684,1.079-1.248,2.698-1.248,4.881c0,2.146,0.564,3.766,1.248,4.857h-0.721
		c-0.623-0.911-1.307-2.519-1.307-4.87c0.023-2.35,0.684-3.969,1.307-4.869H491.892z"/>
	<path d="M496.486,278.086c0,2.842-0.899,4.005-2.026,4.005c-1.211,0-1.943-1.438-1.943-3.981c0-2.626,0.779-4.006,2.051-4.006
		C495.827,274.104,496.486,275.603,496.486,278.086z M493.44,278.098c-0.012,1.883,0.312,3.201,1.079,3.201
		c0.743,0,1.044-1.33,1.044-3.201c0-1.823-0.301-3.203-1.044-3.203C493.765,274.895,493.44,276.214,493.44,278.098z"/>
	<path d="M497.017,283.506c0.252-0.695,0.576-1.967,0.695-2.794l1.043-0.12c-0.275,0.972-0.779,2.303-1.104,2.83L497.017,283.506z"
		/>
	<path d="M502.126,278.505v0.708H499.5v-0.708H502.126z"/>
	<path d="M504.743,275.135h-0.023l-1.296,0.744l-0.181-0.72l1.645-0.959h0.755v7.796h-0.899V275.135z"/>
	<path d="M507.408,283.435c0.684-1.079,1.247-2.723,1.247-4.882c0-2.159-0.563-3.778-1.247-4.857h0.72
		c0.623,0.887,1.307,2.482,1.307,4.857c-0.023,2.375-0.684,3.958-1.307,4.882H507.408z"/>
</g>
<g>
	<path d="M436.872,245.349c-0.684,1.079-1.248,2.698-1.248,4.881c0,2.146,0.564,3.766,1.248,4.857h-0.721
		c-0.623-0.912-1.307-2.519-1.307-4.87c0.023-2.351,0.684-3.97,1.307-4.869H436.872z"/>
	<path d="M437.569,253.648v-0.6l0.647-0.888c0.936-1.295,2.026-2.758,2.026-4.222c0-0.863-0.371-1.391-1.104-1.391
		c-0.563,0-0.936,0.3-1.127,0.432l-0.228-0.695c0.264-0.228,0.815-0.528,1.522-0.528c1.296,0,1.848,0.959,1.848,2.135
		c0,1.463-0.947,2.878-1.919,4.198l-0.516,0.72v0.024h2.591v0.815H437.569z"/>
	<path d="M441.997,255.16c0.252-0.696,0.576-1.967,0.695-2.794l1.043-0.12c-0.275,0.972-0.779,2.303-1.104,2.831L441.997,255.16z"/>
	<path d="M448.414,249.739c0,2.842-0.899,4.005-2.026,4.005c-1.211,0-1.943-1.439-1.943-3.981c0-2.626,0.779-4.006,2.051-4.006
		C447.755,245.757,448.414,247.256,448.414,249.739z M445.368,249.75c-0.012,1.883,0.312,3.202,1.079,3.202
		c0.743,0,1.044-1.331,1.044-3.202c0-1.823-0.301-3.202-1.044-3.202C445.692,246.548,445.368,247.868,445.368,249.75z"/>
	<path d="M449.04,255.088c0.684-1.08,1.248-2.723,1.248-4.881c0-2.159-0.564-3.778-1.248-4.857h0.721
		c0.623,0.887,1.307,2.482,1.307,4.857c-0.023,2.375-0.684,3.958-1.307,4.881H449.04z"/>
</g>
<polygon fill="none" stroke="#000000" stroke-width="0.25" stroke-miterlimit="10" points="60.867,159.31 53.78,152.223 
	53.78,166.396 "/>
<g>
	<g>
		<polyline fill="none" stroke="#000000" stroke-width="0.25" stroke-miterlimit="10" points="67.953,152.723 67.953,152.223 
			67.6,152.577 		"/>
		
			<line fill="none" stroke="#000000" stroke-width="0.25" stroke-miterlimit="10" stroke-dasharray="1.0024,1.0024" x1="66.891" y1="153.286" x2="61.575" y2="158.602"/>
		<polyline fill="none" stroke="#000000" stroke-width="0.25" stroke-miterlimit="10" points="61.22,158.956 60.867,159.31 
			61.22,159.663 		"/>
		
			<line fill="none" stroke="#000000" stroke-width="0.25" stroke-miterlimit="10" stroke-dasharray="1.0024,1.0024" x1="61.929" y1="160.372" x2="67.245" y2="165.688"/>
		<polyline fill="none" stroke="#000000" stroke-width="0.25" stroke-miterlimit="10" points="67.6,166.042 67.953,166.396 
			67.953,165.896 		"/>
		
			<line fill="none" stroke="#000000" stroke-width="0.25" stroke-miterlimit="10" stroke-dasharray="1.0133,1.0133" x1="67.953" y1="164.883" x2="67.953" y2="153.23"/>
	</g>
</g>
<line fill="none" stroke="#000000" stroke-width="0.25" stroke-miterlimit="10" x1="60.867" y1="152.223" x2="60.867" y2="166.396"/>
<g>
	<g>
		<path fill="none" stroke="#000000" stroke-width="0.25" stroke-miterlimit="10" d="M120.096,78.453
			c3.914,0,7.086-3.173,7.086-7.086s-3.173-7.086-7.086-7.086s-7.086,3.173-7.086,7.086c0,0.264,0.015,0.523,0.044,0.779"/>
		<g>
			<path d="M113.178,72.89c-0.186-0.33-0.476-0.73-0.754-0.962l0.621,0.12l0.554-0.305C113.406,72.048,113.253,72.519,113.178,72.89
				z"/>
		</g>
	</g>
</g>
<g>
	<path d="M116.136,73.722c0.17,0,0.31-0.02,0.48-0.06c0.33-0.08,0.649-0.26,0.89-0.51c0.36-0.39,0.649-0.989,0.759-1.839h-0.02
		c-0.25,0.3-0.589,0.54-1.069,0.54c-0.81,0-1.409-0.75-1.409-1.929c0-1.189,0.64-2.199,1.639-2.199c1.109,0,1.629,1.179,1.629,2.608
		c0,1.289-0.32,2.289-0.859,3.008c-0.38,0.52-0.93,0.859-1.499,0.979c-0.21,0.05-0.38,0.06-0.54,0.06V73.722z M116.526,69.864
		c0,0.949,0.36,1.409,0.879,1.409c0.32,0,0.64-0.22,0.799-0.58c0.04-0.1,0.06-0.19,0.06-0.41c0-1.37-0.39-1.959-0.909-1.959
		C116.965,68.325,116.516,68.745,116.526,69.864z"/>
	<path d="M122.895,71.043c0,2.369-0.75,3.338-1.689,3.338c-1.01,0-1.619-1.199-1.619-3.318c0-2.189,0.649-3.338,1.709-3.338
		C122.345,67.726,122.895,68.975,122.895,71.043z M120.356,71.054c-0.01,1.569,0.26,2.668,0.899,2.668c0.62,0,0.87-1.109,0.87-2.668
		c0-1.52-0.25-2.669-0.87-2.669C120.625,68.385,120.356,69.484,120.356,71.054z"/>
	<path d="M124.725,67.465c-0.22,0.81-0.64,1.849-0.899,2.299l-0.46,0.07c0.21-0.58,0.48-1.579,0.58-2.269L124.725,67.465z"/>
</g>
<polygon fill="none" stroke="#000000" stroke-width="0.25" stroke-miterlimit="10" points="209.04,159.31 201.954,152.223 
	201.954,166.396 "/>
<g>
	<g>
		<polyline fill="none" stroke="#000000" stroke-width="0.25" stroke-miterlimit="10" points="216.126,152.723 216.126,152.223 
			215.773,152.577 		"/>
		
			<line fill="none" stroke="#000000" stroke-width="0.25" stroke-miterlimit="10" stroke-dasharray="1.0024,1.0024" x1="215.064" y1="153.286" x2="209.749" y2="158.602"/>
		<polyline fill="none" stroke="#000000" stroke-width="0.25" stroke-miterlimit="10" points="209.393,158.956 209.04,159.31 
			209.393,159.663 		"/>
		
			<line fill="none" stroke="#000000" stroke-width="0.25" stroke-miterlimit="10" stroke-dasharray="1.0024,1.0024" x1="210.102" y1="160.372" x2="215.418" y2="165.688"/>
		<polyline fill="none" stroke="#000000" stroke-width="0.25" stroke-miterlimit="10" points="215.773,166.042 216.126,166.396 
			216.126,165.896 		"/>
		
			<line fill="none" stroke="#000000" stroke-width="0.25" stroke-miterlimit="10" stroke-dasharray="1.0133,1.0133" x1="216.126" y1="164.883" x2="216.126" y2="153.23"/>
	</g>
</g>
<line fill="none" stroke="#000000" stroke-width="0.25" stroke-miterlimit="10" x1="209.04" y1="152.223" x2="209.04" y2="166.396"/>
<polygon fill="none" stroke="#000000" stroke-width="0.25" stroke-miterlimit="10" points="348.57,159.31 341.484,152.223 
	341.484,166.396 "/>
<g>
	<g>
		<polyline fill="none" stroke="#000000" stroke-width="0.25" stroke-miterlimit="10" points="355.657,152.723 355.657,152.223 
			355.304,152.577 		"/>
		
			<line fill="none" stroke="#000000" stroke-width="0.25" stroke-miterlimit="10" stroke-dasharray="1.0024,1.0024" x1="354.595" y1="153.286" x2="349.279" y2="158.602"/>
		<polyline fill="none" stroke="#000000" stroke-width="0.25" stroke-miterlimit="10" points="348.924,158.956 348.57,159.31 
			348.924,159.663 		"/>
		
			<line fill="none" stroke="#000000" stroke-width="0.25" stroke-miterlimit="10" stroke-dasharray="1.0024,1.0024" x1="349.633" y1="160.372" x2="354.949" y2="165.688"/>
		<polyline fill="none" stroke="#000000" stroke-width="0.25" stroke-miterlimit="10" points="355.304,166.042 355.657,166.396 
			355.657,165.896 		"/>
		
			<line fill="none" stroke="#000000" stroke-width="0.25" stroke-miterlimit="10" stroke-dasharray="1.0133,1.0133" x1="355.657" y1="164.883" x2="355.657" y2="153.23"/>
	</g>
</g>
<line fill="none" stroke="#000000" stroke-width="0.25" stroke-miterlimit="10" x1="348.57" y1="152.223" x2="348.57" y2="166.396"/>
<polygon fill="none" stroke="#000000" stroke-width="0.25" stroke-miterlimit="10" points="500.744,159.31 493.658,152.223 
	493.658,166.396 "/>
<g>
	<g>
		<polyline fill="none" stroke="#000000" stroke-width="0.25" stroke-miterlimit="10" points="507.83,152.723 507.83,152.223 
			507.477,152.577 		"/>
		
			<line fill="none" stroke="#000000" stroke-width="0.25" stroke-miterlimit="10" stroke-dasharray="1.0024,1.0024" x1="506.768" y1="153.286" x2="501.453" y2="158.602"/>
		<polyline fill="none" stroke="#000000" stroke-width="0.25" stroke-miterlimit="10" points="501.098,158.956 500.744,159.31 
			501.098,159.663 		"/>
		
			<line fill="none" stroke="#000000" stroke-width="0.25" stroke-miterlimit="10" stroke-dasharray="1.0024,1.0024" x1="501.807" y1="160.372" x2="507.123" y2="165.688"/>
		<polyline fill="none" stroke="#000000" stroke-width="0.25" stroke-miterlimit="10" points="507.477,166.042 507.83,166.396 
			507.83,165.896 		"/>
		
			<line fill="none" stroke="#000000" stroke-width="0.25" stroke-miterlimit="10" stroke-dasharray="1.0133,1.0133" x1="507.83" y1="164.883" x2="507.83" y2="153.23"/>
	</g>
</g>
<line fill="none" stroke="#000000" stroke-width="0.25" stroke-miterlimit="10" x1="500.744" y1="152.223" x2="500.744" y2="166.396"/>
<g>
	<g>
		<path fill="none" stroke="#000000" stroke-width="0.25" stroke-miterlimit="10" d="M265.734,77.634
			c3.913,0,7.086-3.173,7.086-7.086s-3.173-7.086-7.086-7.086c-3.914,0-7.087,3.173-7.087,7.086c0,0.264,0.015,0.523,0.044,0.779"/>
		<g>
			<path d="M258.816,72.071c-0.186-0.33-0.477-0.73-0.754-0.962l0.62,0.12l0.554-0.305C259.043,71.229,258.89,71.7,258.816,72.071z"
				/>
		</g>
	</g>
</g>
<g>
	<path d="M261.773,72.903c0.17,0,0.31-0.02,0.48-0.06c0.33-0.08,0.649-0.26,0.89-0.51c0.36-0.39,0.649-0.989,0.759-1.839h-0.02
		c-0.25,0.3-0.589,0.54-1.069,0.54c-0.81,0-1.409-0.75-1.409-1.929c0-1.189,0.64-2.199,1.639-2.199c1.109,0,1.629,1.179,1.629,2.608
		c0,1.289-0.32,2.289-0.859,3.008c-0.38,0.52-0.93,0.859-1.499,0.979c-0.21,0.05-0.38,0.06-0.54,0.06V72.903z M262.163,69.045
		c0,0.949,0.36,1.409,0.879,1.409c0.32,0,0.64-0.22,0.799-0.58c0.04-0.1,0.06-0.19,0.06-0.41c0-1.37-0.39-1.959-0.909-1.959
		C262.603,67.506,262.153,67.926,262.163,69.045z"/>
	<path d="M268.532,70.225c0,2.369-0.75,3.338-1.689,3.338c-1.01,0-1.619-1.199-1.619-3.318c0-2.189,0.649-3.338,1.709-3.338
		C267.982,66.907,268.532,68.156,268.532,70.225z M265.993,70.235c-0.01,1.569,0.26,2.668,0.899,2.668c0.62,0,0.87-1.109,0.87-2.668
		c0-1.52-0.25-2.669-0.87-2.669C266.263,67.566,265.993,68.666,265.993,70.235z"/>
	<path d="M270.362,66.646c-0.22,0.81-0.64,1.849-0.899,2.299l-0.46,0.07c0.21-0.58,0.48-1.579,0.58-2.269L270.362,66.646z"/>
</g>
<g>
	<g>
		<path fill="none" stroke="#000000" stroke-width="0.25" stroke-miterlimit="10" d="M434.138,78.453
			c3.914,0,7.086-3.173,7.086-7.086s-3.172-7.086-7.086-7.086s-7.086,3.173-7.086,7.086c0,0.264,0.014,0.523,0.043,0.779"/>
		<g>
			<path d="M427.22,72.89c-0.186-0.33-0.477-0.73-0.754-0.962l0.621,0.12l0.553-0.305C427.448,72.048,427.294,72.519,427.22,72.89z"
				/>
		</g>
	</g>
</g>
<g>
	<path d="M430.177,73.722c0.17,0,0.311-0.02,0.48-0.06c0.33-0.08,0.649-0.26,0.89-0.51c0.36-0.39,0.649-0.989,0.759-1.839h-0.02
		c-0.25,0.3-0.59,0.54-1.069,0.54c-0.81,0-1.409-0.75-1.409-1.929c0-1.189,0.64-2.199,1.639-2.199c1.109,0,1.629,1.179,1.629,2.608
		c0,1.289-0.319,2.289-0.859,3.008c-0.379,0.52-0.93,0.859-1.498,0.979c-0.211,0.05-0.381,0.06-0.541,0.06V73.722z M430.567,69.864
		c0,0.949,0.359,1.409,0.879,1.409c0.32,0,0.641-0.22,0.8-0.58c0.04-0.1,0.06-0.19,0.06-0.41c0-1.37-0.389-1.959-0.908-1.959
		C431.007,68.325,430.558,68.745,430.567,69.864z"/>
	<path d="M436.937,71.043c0,2.369-0.75,3.338-1.689,3.338c-1.01,0-1.619-1.199-1.619-3.318c0-2.189,0.649-3.338,1.709-3.338
		C436.386,67.726,436.937,68.975,436.937,71.043z M434.397,71.054c-0.01,1.569,0.26,2.668,0.899,2.668c0.62,0,0.87-1.109,0.87-2.668
		c0-1.52-0.25-2.669-0.87-2.669C434.667,68.385,434.397,69.484,434.397,71.054z"/>
	<path d="M438.767,67.465c-0.22,0.81-0.64,1.849-0.899,2.299l-0.46,0.07c0.21-0.58,0.48-1.579,0.58-2.269L438.767,67.465z"/>
</g>
</svg>
