<?xml version="1.0" encoding="utf-8"?>
<!-- Generator: Adobe Illustrator 15.0.0, SVG Export Plug-In  -->
<!DOCTYPE svg PUBLIC "-//W3C//DTD SVG 1.1//EN" "http://www.w3.org/Graphics/SVG/1.1/DTD/svg11.dtd" [
	<!ENTITY ns_flows "http://ns.adobe.com/Flows/1.0/">
]>
<svg version="1.1"
	 xmlns="http://www.w3.org/2000/svg" xmlns:xlink="http://www.w3.org/1999/xlink" xmlns:a="http://ns.adobe.com/AdobeSVGViewerExtensions/3.0/"
	 x="0px" y="0px" width="305px" height="194px" viewBox="-10.302 -12.003 305 194" enable-background="new -10.302 -12.003 305 194"
	 xml:space="preserve">
<defs>
</defs>
<rect x="28.847" y="57.193" fill="none" stroke="#000000" stroke-width="0.25" stroke-miterlimit="10" width="28.347" height="28.347"/>
<rect x="28.847" y="0.5" fill="none" stroke="#000000" stroke-width="0.25" stroke-miterlimit="10" width="28.347" height="28.347"/>
<rect x="28.847" y="28.847" fill="none" stroke="#000000" stroke-width="0.25" stroke-miterlimit="10" width="28.347" height="28.347"/>
<rect x="0.5" y="0.5" fill="none" stroke="#000000" stroke-width="0.25" stroke-miterlimit="10" width="28.347" height="28.347"/>
<rect x="0.5" y="28.847" fill="none" stroke="#000000" stroke-width="0.25" stroke-miterlimit="10" width="28.346" height="28.347"/>
<rect x="0.5" y="57.193" fill="none" stroke="#000000" stroke-width="0.25" stroke-miterlimit="10" width="28.346" height="28.347"/>
<rect x="0.5" y="85.54" fill="none" stroke="#000000" stroke-width="0.25" stroke-miterlimit="10" width="28.346" height="28.347"/>
<rect x="0.5" y="113.887" fill="none" stroke="#000000" stroke-width="0.25" stroke-miterlimit="10" width="28.346" height="28.347"/>
<rect x="0.5" y="142.233" fill="none" stroke="#000000" stroke-width="0.25" stroke-miterlimit="10" width="28.346" height="28.347"/>
<rect x="28.847" y="142.233" fill="none" stroke="#000000" stroke-width="0.25" stroke-miterlimit="10" width="28.347" height="28.347"/>
<rect x="28.847" y="85.54" fill="none" stroke="#000000" stroke-width="0.25" stroke-miterlimit="10" width="28.347" height="28.347"/>
<rect x="28.847" y="113.887" fill="none" stroke="#000000" stroke-width="0.25" stroke-miterlimit="10" width="28.347" height="28.347"/>
<rect x="85.54" y="57.193" fill="none" stroke="#000000" stroke-width="0.25" stroke-miterlimit="10" width="28.347" height="28.347"/>
<rect x="85.54" y="0.5" fill="none" stroke="#000000" stroke-width="0.25" stroke-miterlimit="10" width="28.347" height="28.347"/>
<rect x="85.54" y="28.847" fill="none" stroke="#000000" stroke-width="0.25" stroke-miterlimit="10" width="28.347" height="28.347"/>
<rect x="57.193" y="0.5" fill="none" stroke="#000000" stroke-width="0.25" stroke-miterlimit="10" width="28.347" height="28.347"/>
<rect x="57.194" y="28.847" fill="none" stroke="#000000" stroke-width="0.25" stroke-miterlimit="10" width="28.346" height="28.347"/>
<rect x="57.193" y="57.193" fill="none" stroke="#000000" stroke-width="0.25" stroke-miterlimit="10" width="28.346" height="28.347"/>
<rect x="57.194" y="85.54" fill="none" stroke="#000000" stroke-width="0.25" stroke-miterlimit="10" width="28.346" height="28.347"/>
<rect x="57.193" y="113.887" fill="none" stroke="#000000" stroke-width="0.25" stroke-miterlimit="10" width="28.346" height="28.347"/>
<rect x="57.194" y="142.233" fill="none" stroke="#000000" stroke-width="0.25" stroke-miterlimit="10" width="28.346" height="28.347"/>
<rect x="85.54" y="142.233" fill="none" stroke="#000000" stroke-width="0.25" stroke-miterlimit="10" width="28.347" height="28.347"/>
<rect x="85.54" y="85.54" fill="none" stroke="#000000" stroke-width="0.25" stroke-miterlimit="10" width="28.347" height="28.347"/>
<rect x="85.54" y="113.887" fill="none" stroke="#000000" stroke-width="0.25" stroke-miterlimit="10" width="28.347" height="28.347"/>
<rect x="142.233" y="57.193" fill="none" stroke="#000000" stroke-width="0.25" stroke-miterlimit="10" width="28.347" height="28.347"/>
<rect x="142.233" y="0.5" fill="none" stroke="#000000" stroke-width="0.25" stroke-miterlimit="10" width="28.347" height="28.347"/>
<rect x="142.233" y="28.847" fill="none" stroke="#000000" stroke-width="0.25" stroke-miterlimit="10" width="28.347" height="28.347"/>
<rect x="113.887" y="0.5" fill="none" stroke="#000000" stroke-width="0.25" stroke-miterlimit="10" width="28.347" height="28.347"/>
<rect x="113.887" y="28.847" fill="none" stroke="#000000" stroke-width="0.25" stroke-miterlimit="10" width="28.346" height="28.347"/>
<rect x="113.887" y="57.193" fill="none" stroke="#000000" stroke-width="0.25" stroke-miterlimit="10" width="28.346" height="28.347"/>
<rect x="113.887" y="85.54" fill="none" stroke="#000000" stroke-width="0.25" stroke-miterlimit="10" width="28.346" height="28.347"/>
<rect x="113.887" y="113.887" fill="none" stroke="#000000" stroke-width="0.25" stroke-miterlimit="10" width="28.346" height="28.347"/>
<rect x="113.887" y="142.233" fill="none" stroke="#000000" stroke-width="0.25" stroke-miterlimit="10" width="28.346" height="28.347"/>
<rect x="142.233" y="142.233" fill="none" stroke="#000000" stroke-width="0.25" stroke-miterlimit="10" width="28.347" height="28.347"/>
<rect x="142.233" y="85.54" fill="none" stroke="#000000" stroke-width="0.25" stroke-miterlimit="10" width="28.347" height="28.347"/>
<rect x="142.233" y="113.887" fill="none" stroke="#000000" stroke-width="0.25" stroke-miterlimit="10" width="28.347" height="28.347"/>
<rect x="198.927" y="57.193" fill="none" stroke="#000000" stroke-width="0.25" stroke-miterlimit="10" width="28.347" height="28.347"/>
<rect x="198.927" y="0.5" fill="none" stroke="#000000" stroke-width="0.25" stroke-miterlimit="10" width="28.347" height="28.347"/>
<rect x="198.927" y="28.847" fill="none" stroke="#000000" stroke-width="0.25" stroke-miterlimit="10" width="28.347" height="28.347"/>
<rect x="170.58" y="0.5" fill="none" stroke="#000000" stroke-width="0.25" stroke-miterlimit="10" width="28.347" height="28.347"/>
<rect x="170.581" y="28.847" fill="none" stroke="#000000" stroke-width="0.25" stroke-miterlimit="10" width="28.346" height="28.347"/>
<rect x="170.58" y="57.193" fill="none" stroke="#000000" stroke-width="0.25" stroke-miterlimit="10" width="28.346" height="28.347"/>
<rect x="170.581" y="85.54" fill="none" stroke="#000000" stroke-width="0.25" stroke-miterlimit="10" width="28.346" height="28.347"/>
<rect x="170.58" y="113.887" fill="none" stroke="#000000" stroke-width="0.25" stroke-miterlimit="10" width="28.346" height="28.347"/>
<rect x="170.581" y="142.233" fill="none" stroke="#000000" stroke-width="0.25" stroke-miterlimit="10" width="28.346" height="28.347"/>
<rect x="198.927" y="142.233" fill="none" stroke="#000000" stroke-width="0.25" stroke-miterlimit="10" width="28.347" height="28.347"/>
<rect x="198.927" y="85.54" fill="none" stroke="#000000" stroke-width="0.25" stroke-miterlimit="10" width="28.347" height="28.347"/>
<rect x="198.927" y="113.887" fill="none" stroke="#000000" stroke-width="0.25" stroke-miterlimit="10" width="28.347" height="28.347"/>
<rect x="255.62" y="57.193" fill="none" stroke="#000000" stroke-width="0.25" stroke-miterlimit="10" width="28.348" height="28.347"/>
<rect x="255.62" y="0.5" fill="none" stroke="#000000" stroke-width="0.25" stroke-miterlimit="10" width="28.348" height="28.347"/>
<rect x="255.62" y="28.847" fill="none" stroke="#000000" stroke-width="0.25" stroke-miterlimit="10" width="28.348" height="28.347"/>
<rect x="227.273" y="0.5" fill="none" stroke="#000000" stroke-width="0.25" stroke-miterlimit="10" width="28.346" height="28.347"/>
<rect x="227.274" y="28.847" fill="none" stroke="#000000" stroke-width="0.25" stroke-miterlimit="10" width="28.346" height="28.347"/>
<rect x="227.273" y="57.193" fill="none" stroke="#000000" stroke-width="0.25" stroke-miterlimit="10" width="28.346" height="28.347"/>
<rect x="227.274" y="85.54" fill="none" stroke="#000000" stroke-width="0.25" stroke-miterlimit="10" width="28.346" height="28.347"/>
<rect x="227.273" y="113.887" fill="none" stroke="#000000" stroke-width="0.25" stroke-miterlimit="10" width="28.346" height="28.347"/>
<rect x="227.274" y="142.233" fill="none" stroke="#000000" stroke-width="0.25" stroke-miterlimit="10" width="28.346" height="28.347"/>
<rect x="255.62" y="142.233" fill="none" stroke="#000000" stroke-width="0.25" stroke-miterlimit="10" width="28.348" height="28.347"/>
<rect x="255.62" y="85.54" fill="none" stroke="#000000" stroke-width="0.25" stroke-miterlimit="10" width="28.348" height="28.347"/>
<rect x="255.62" y="113.887" fill="none" stroke="#000000" stroke-width="0.25" stroke-miterlimit="10" width="28.348" height="28.347"/>
<polygon opacity="0.75" fill="#43505F" stroke="#000000" stroke-miterlimit="10" points="0.5,0.5 57.193,0.5 57.194,28.847 
	85.54,28.847 85.54,57.193 57.193,57.193 57.194,85.54 28.847,85.54 28.846,28.847 0.5,28.847 "/>
<polygon opacity="0.75" fill="#574762" stroke="#000000" stroke-miterlimit="10" points="198.927,85.54 198.927,113.887 
	142.234,113.887 142.234,0.5 170.58,0.5 170.58,85.54 "/>
<polygon opacity="0.75" fill="#683E56" stroke="#000000" stroke-miterlimit="10" points="255.62,113.887 227.273,113.887 
	227.273,57.193 198.927,57.194 198.927,0.501 227.273,0.5 227.273,28.848 255.62,28.848 "/>
<polygon opacity="0.75" fill="#76364C" stroke="#000000" stroke-miterlimit="10" points="28.786,170.58 28.786,113.887 
	113.826,113.887 113.948,142.109 85.479,142.233 85.479,170.58 "/>
<rect x="113.887" y="0.5" opacity="0.75" fill="#2D565A" stroke="#000000" stroke-miterlimit="10" width="28.347" height="141.732"/>
</svg>
