<?xml version="1.0" encoding="utf-8"?>
<!-- Generator: Adobe Illustrator 15.0.0, SVG Export Plug-In . SVG Version: 6.00 Build 0)  -->
<!DOCTYPE svg PUBLIC "-//W3C//DTD SVG 1.1//EN" "http://www.w3.org/Graphics/SVG/1.1/DTD/svg11.dtd">
<svg version="1.1" id="Layer_1" xmlns="http://www.w3.org/2000/svg" xmlns:xlink="http://www.w3.org/1999/xlink" x="0px" y="0px"
	 width="354.331px" height="354.331px" viewBox="0 0 354.331 354.331" enable-background="new 0 0 354.331 354.331"
	 xml:space="preserve">
<rect x="30.525" y="47.221" fill="none" stroke="#000000" stroke-width="0.25" stroke-miterlimit="10" width="280.63" height="280.63"/>
<rect x="30.525" y="47.221" fill="none" stroke="#000000" stroke-width="0.25" stroke-miterlimit="10" width="187.087" height="187.087"/>
<rect x="217.612" y="234.308" fill="none" stroke="#000000" stroke-width="0.25" stroke-miterlimit="10" width="85.04" height="85.039"/>
<rect x="30.525" y="234.308" fill="none" stroke="#000000" stroke-width="0.25" stroke-miterlimit="10" width="187.087" height="85.039"/>
<rect x="217.612" y="47.221" fill="none" stroke="#000000" stroke-width="0.25" stroke-miterlimit="10" width="85.04" height="187.087"/>
<rect x="302.652" y="319.347" fill="none" stroke="#000000" stroke-width="0.25" stroke-miterlimit="10" width="8.503" height="8.504"/>
<rect x="30.525" y="319.347" fill="none" stroke="#000000" stroke-width="0.25" stroke-miterlimit="10" width="272.127" height="8.504"/>
<text transform="matrix(1 0 0 1 125.332 148.7207)"><tspan x="0" y="0" font-family="'MyriadPro-It'" font-size="12">h</tspan><tspan x="6.408" y="-6" font-family="'MyriadPro-It'" font-size="6">2</tspan></text>
<line x1="30.525" y1="30.721" x2="30.525" y2="41.721"/>
<line x1="217.612" y1="30.721" x2="217.612" y2="41.721"/>
<line x1="302.652" y1="30.721" x2="302.652" y2="41.721"/>
<line x1="311.155" y1="30.721" x2="311.155" y2="41.721"/>
<g>
	<line x1="302.657" y1="36.221" x2="311.155" y2="36.221"/>
	<g>
		
			<line fill="none" stroke="#000000" stroke-width="0.25" stroke-miterlimit="10" x1="304.451" y1="36.221" x2="309.361" y2="36.221"/>
		<g>
			<polygon points="304.816,37.46 302.657,36.214 304.816,34.967 			"/>
		</g>
		<g>
			<polygon points="308.996,37.46 311.155,36.214 308.996,34.967 			"/>
		</g>
	</g>
</g>
<g>
	<line x1="217.612" y1="36.221" x2="302.657" y2="36.221"/>
	<g>
		
			<line fill="none" stroke="#000000" stroke-width="0.25" stroke-miterlimit="10" x1="219.406" y1="36.221" x2="300.863" y2="36.221"/>
		<g>
			<polygon points="219.771,37.46 217.612,36.214 219.771,34.967 			"/>
		</g>
		<g>
			<polygon points="300.498,37.46 302.657,36.214 300.498,34.967 			"/>
		</g>
	</g>
</g>
<g>
	<line x1="30.525" y1="36.221" x2="217.612" y2="36.221"/>
	<g>
		
			<line fill="none" stroke="#000000" stroke-width="0.25" stroke-miterlimit="10" x1="32.319" y1="36.221" x2="215.818" y2="36.221"/>
		<g>
			<polygon points="32.684,37.46 30.525,36.214 32.684,34.967 			"/>
		</g>
		<g>
			<polygon points="215.453,37.46 217.612,36.214 215.453,34.967 			"/>
		</g>
	</g>
</g>
<text transform="matrix(1 0 0 1 122.1172 25.2207)" font-family="'MyriadPro-It'" font-size="12">h</text>
<text transform="matrix(1 0 0 1 256.7695 25.2207)" font-family="'MyriadPro-It'" font-size="12">t</text>
<text transform="matrix(1 0 0 1 303.2139 25.2207)" font-family="'MyriadPro-It'" font-size="12">u</text>
<line x1="23.525" y1="47.221" x2="12.525" y2="47.221"/>
<line x1="23.525" y1="234.308" x2="12.525" y2="234.308"/>
<line x1="23.525" y1="319.348" x2="12.525" y2="319.348"/>
<line x1="23.525" y1="327.851" x2="12.525" y2="327.851"/>
<g>
	<line x1="18.025" y1="319.353" x2="18.025" y2="327.851"/>
	<g>
		
			<line fill="none" stroke="#000000" stroke-width="0.25" stroke-miterlimit="10" x1="18.025" y1="321.146" x2="18.025" y2="326.057"/>
		<g>
			<polygon points="16.786,321.512 18.032,319.353 19.279,321.512 			"/>
		</g>
		<g>
			<polygon points="16.786,325.691 18.032,327.851 19.279,325.691 			"/>
		</g>
	</g>
</g>
<g>
	<line x1="18.025" y1="234.308" x2="18.025" y2="319.353"/>
	<g>
		
			<line fill="none" stroke="#000000" stroke-width="0.25" stroke-miterlimit="10" x1="18.025" y1="236.102" x2="18.025" y2="317.559"/>
		<g>
			<polygon points="16.786,236.467 18.032,234.308 19.279,236.467 			"/>
		</g>
		<g>
			<polygon points="16.786,317.193 18.032,319.353 19.279,317.193 			"/>
		</g>
	</g>
</g>
<g>
	<line x1="18.025" y1="47.221" x2="18.025" y2="234.308"/>
	<g>
		
			<line fill="none" stroke="#000000" stroke-width="0.25" stroke-miterlimit="10" x1="18.025" y1="49.015" x2="18.025" y2="232.514"/>
		<g>
			<polygon points="16.786,49.38 18.032,47.221 19.279,49.38 			"/>
		</g>
		<g>
			<polygon points="16.786,232.148 18.032,234.308 19.279,232.148 			"/>
		</g>
	</g>
</g>
<text transform="matrix(1 0 0 1 3.4551 133.7207)" font-family="'MyriadPro-It'" font-size="12">h</text>
<text transform="matrix(1 0 0 1 4.6426 281.7207)" font-family="'MyriadPro-It'" font-size="12">t</text>
<text transform="matrix(1 0 0 1 3.5029 325.2207)" font-family="'MyriadPro-It'" font-size="12">u</text>
<text transform="matrix(1 0 0 1 256.9844 281.7207)"><tspan x="0" y="0" font-family="'MyriadPro-It'" font-size="12">t</tspan><tspan x="3.756" y="-6" font-family="'MyriadPro-It'" font-size="6">2</tspan></text>
<text transform="matrix(1 0 0 1 258.4678 151.2207)" font-family="'MyriadPro-It'" font-size="12">ht</text>
<text transform="matrix(1 0 0 1 121.5283 281.7207)" font-family="'MyriadPro-It'" font-size="12">ht</text>
</svg>
