<svg xmlns="http://www.w3.org/2000/svg" viewBox="0 0 900 400" font-family="monospace" font-size="12">
  <rect width="900" height="400" fill="#1a1a2e"/>
  
  <!-- Grid lines -->
  <line x1="70" y1="340.0" x2="840" y2="340.0" stroke="#333" stroke-width="0.5"/>
  <text x="62" y="340.0" text-anchor="end" fill="#4cc9f0" dy="4">0</text>
  <line x1="70" y1="279.2" x2="840" y2="279.2" stroke="#333" stroke-width="0.5"/>
  <text x="62" y="279.2" text-anchor="end" fill="#4cc9f0" dy="4">100</text>
  <line x1="70" y1="218.5" x2="840" y2="218.5" stroke="#333" stroke-width="0.5"/>
  <text x="62" y="218.5" text-anchor="end" fill="#4cc9f0" dy="4">200</text>
  <line x1="70" y1="157.7" x2="840" y2="157.7" stroke="#333" stroke-width="0.5"/>
  <text x="62" y="157.7" text-anchor="end" fill="#4cc9f0" dy="4">300</text>
  <line x1="70" y1="96.9" x2="840" y2="96.9" stroke="#333" stroke-width="0.5"/>
  <text x="62" y="96.9" text-anchor="end" fill="#4cc9f0" dy="4">400</text>
  <text x="848" y="281.7" text-anchor="start" fill="#f77f00" dy="4">1</text>
  <text x="848" y="223.4" text-anchor="start" fill="#f77f00" dy="4">2</text>
  <text x="848" y="165.0" text-anchor="start" fill="#f77f00" dy="4">3</text>
  <text x="848" y="106.7" text-anchor="start" fill="#f77f00" dy="4">4</text>
  <text x="848" y="48.4" text-anchor="start" fill="#f77f00" dy="4">5</text>
  <line x1="83.2" y1="340" x2="83.2" y2="345" stroke="#666"/>
  <text x="83.2" y="360" text-anchor="middle" fill="#ccc">04-10</text>
  <line x1="188.8" y1="340" x2="188.8" y2="345" stroke="#666"/>
  <text x="188.8" y="360" text-anchor="middle" fill="#ccc">04-11</text>
  <line x1="294.4" y1="340" x2="294.4" y2="345" stroke="#666"/>
  <text x="294.4" y="360" text-anchor="middle" fill="#ccc">04-12</text>
  <line x1="400.0" y1="340" x2="400.0" y2="345" stroke="#666"/>
  <text x="400.0" y="360" text-anchor="middle" fill="#ccc">04-13</text>
  <line x1="505.6" y1="340" x2="505.6" y2="345" stroke="#666"/>
  <text x="505.6" y="360" text-anchor="middle" fill="#ccc">04-14</text>
  <line x1="611.2" y1="340" x2="611.2" y2="345" stroke="#666"/>
  <text x="611.2" y="360" text-anchor="middle" fill="#ccc">04-15</text>
  <line x1="716.8" y1="340" x2="716.8" y2="345" stroke="#666"/>
  <text x="716.8" y="360" text-anchor="middle" fill="#ccc">04-16</text>
  <line x1="822.4" y1="340" x2="822.4" y2="345" stroke="#666"/>
  <text x="822.4" y="360" text-anchor="middle" fill="#ccc">04-17</text>
  
  <!-- Rate area (behind) -->
  <polyline points="70.0,308.2 74.4,273.3 78.8,268.4 83.2,274.8 87.6,270.7 92.0,273.4 96.4,267.4 100.8,262.1 105.2,266.4 109.6,201.3 114.0,164.4 118.4,176.7 122.8,162.4 127.2,164.3 131.6,178.3 136.0,175.0 140.4,164.8 144.8,166.6 149.2,165.5 153.6,163.9 158.0,163.0 162.4,165.1 166.8,161.4 171.2,166.9 175.6,169.7 180.0,171.6 184.4,180.5 188.8,180.5 193.2,171.8 197.6,171.2 202.0,167.7 206.4,180.3 210.8,163.2 215.2,179.0 219.6,169.8 224.0,170.6 228.4,175.8 232.8,172.5 237.2,168.3 241.6,171.0 246.0,171.6 250.4,169.5 254.8,170.8 259.2,170.6 263.6,175.4 268.0,183.0 272.4,184.6 276.8,187.8 281.2,181.7 285.6,186.1 290.0,183.7 294.4,176.7 298.8,178.7 303.2,178.8 307.6,176.6 312.0,169.9 316.4,172.1 320.8,171.7 325.2,175.2 329.6,214.6 334.0,246.0 338.4,217.5 342.8,218.1 347.2,239.7 351.6,217.2 356.0,179.7 360.4,168.3 364.8,168.5 369.2,167.1 373.6,176.2 378.0,208.8 382.4,211.9 386.8,219.8 391.2,199.7 395.6,178.1 400.0,207.0 404.4,174.0 408.8,174.0 413.2,171.3 417.6,177.9 422.0,103.5 426.4,157.8 430.8,170.7 435.2,170.9 439.6,182.8 444.0,81.0 448.4,170.6 452.8,168.7 457.2,172.1 461.6,170.6 466.0,170.6 470.4,143.9 474.8,128.1 479.2,131.3 483.6,67.3 488.0,74.0 492.4,82.2 496.8,73.7 501.2,79.1 505.6,84.2 510.0,90.5 514.4,98.0 518.8,76.3 523.2,68.2 527.6,120.8 532.0,187.3 536.4,189.0 540.8,186.3 545.2,203.4 549.6,186.3 554.0,186.9 558.4,188.2 562.8,186.1 567.2,187.1 571.6,142.6 576.0,139.8 580.4,139.8 584.8,154.9 589.2,234.0 593.6,147.6 598.0,175.5 602.4,191.3 606.8,183.9 611.2,186.2 615.6,179.9 620.0,180.1 624.4,172.4 628.8,177.7 633.2,172.0 637.6,175.0 642.0,173.1 646.4,174.1 650.8,176.7 655.2,173.0 659.6,172.9 664.0,174.9 668.4,174.6 672.8,170.6 677.2,169.9 681.6,223.7 686.0,211.5 690.4,212.6 694.8,213.6 699.2,224.2 703.6,219.2 708.0,220.4 712.4,217.5 716.8,220.6 721.2,216.7 725.6,174.0 730.0,174.0 734.4,174.2 738.8,169.7 743.2,214.2 747.6,208.9 752.0,167.4 756.4,191.1 760.8,171.6 765.2,173.3 769.6,148.2 774.0,245.6 778.4,246.7 782.8,245.3 787.2,249.0 791.6,246.1 796.0,246.8 800.4,243.5 804.8,245.3 809.2,247.2 813.6,246.6 818.0,249.0 822.4,243.6 826.8,248.6 831.2,250.1 835.6,246.4 840.0,254.8" fill="none" stroke="#f77f00" stroke-width="1" opacity="0.6"/>
  
  <!-- Cumulative line -->
  <polyline points="70.0,339.7 74.4,339.0 78.8,338.2 83.2,337.5 87.6,336.8 92.0,336.1 96.4,335.4 100.8,334.6 105.2,333.8 109.6,332.4 114.0,330.5 118.4,328.8 122.8,327.0 127.2,325.1 131.6,323.5 136.0,321.7 140.4,319.9 144.8,318.1 149.2,316.3 153.6,314.5 158.0,312.6 162.4,310.8 166.8,308.9 171.2,307.1 175.6,305.3 180.0,303.6 184.4,301.9 188.8,300.3 193.2,298.5 197.6,296.8 202.0,295.0 206.4,293.3 210.8,291.5 215.2,289.8 219.6,288.0 224.0,286.2 228.4,284.5 232.8,282.8 237.2,281.0 241.6,279.2 246.0,277.5 250.4,275.7 254.8,273.9 259.2,272.2 263.6,270.5 268.0,268.8 272.4,267.2 276.8,265.6 281.2,264.0 285.6,262.4 290.0,260.7 294.4,259.0 298.8,257.4 303.2,255.7 307.6,254.0 312.0,252.2 316.4,250.4 320.8,248.7 325.2,247.0 329.6,245.7 334.0,244.7 338.4,243.4 342.8,242.1 347.2,241.1 351.6,239.8 356.0,238.1 360.4,236.4 364.8,234.6 369.2,232.8 373.6,231.1 378.0,229.7 382.4,228.4 386.8,227.1 391.2,225.6 395.6,224.0 400.0,222.6 404.4,220.8 408.8,219.1 413.2,217.4 417.6,215.7 422.0,213.2 426.4,211.3 430.8,209.5 435.2,207.8 439.6,206.1 444.0,203.4 448.4,201.7 452.8,199.9 457.2,198.1 461.6,196.4 466.0,194.6 470.4,192.6 474.8,190.4 479.2,188.2 483.6,185.3 488.0,182.6 492.4,179.9 496.8,177.1 501.2,174.4 505.6,171.7 510.0,169.1 514.4,166.6 518.8,163.9 523.2,161.0 527.6,158.7 532.0,157.2 536.4,155.6 540.8,154.0 545.2,152.6 549.6,151.0 554.0,149.4 558.4,147.8 562.8,146.2 567.2,144.6 571.6,142.5 576.0,140.4 580.4,138.4 584.8,136.4 589.2,135.3 593.6,133.3 598.0,131.6 602.4,130.1 606.8,128.4 611.2,126.8 615.6,125.2 620.0,123.5 624.4,121.7 628.8,120.1 633.2,118.3 637.6,116.6 642.0,114.8 646.4,113.1 650.8,111.4 655.2,109.7 659.6,107.9 664.0,106.2 668.4,104.5 672.8,102.7 677.2,101.0 681.6,99.7 686.0,98.4 690.4,97.1 694.8,95.8 699.2,94.5 703.6,93.3 708.0,92.0 712.4,90.8 716.8,89.5 721.2,88.2 725.6,86.5 730.0,84.8 734.4,83.1 738.8,81.3 743.2,80.0 747.6,78.6 752.0,76.8 756.4,75.3 760.8,73.5 765.2,71.8 769.6,69.8 774.0,68.8 778.4,67.8 782.8,66.8 787.2,65.9 791.6,64.9 796.0,63.9 800.4,62.9 804.8,61.9 809.2,61.0 813.6,60.0 818.0,59.0 822.4,58.0 826.8,57.1 831.2,56.1 835.6,55.2 840.0,54.3" fill="none" stroke="#4cc9f0" stroke-width="2.5"/>
  
  <!-- Axes -->
  <line x1="70" y1="40" x2="70" y2="340" stroke="#ccc"/>
  <line x1="70" y1="340" x2="840" y2="340" stroke="#ccc"/>
  <line x1="840" y1="40" x2="840" y2="340" stroke="#ccc"/>
  
  <!-- Labels -->
  <text x="450.0" y="395" text-anchor="middle" fill="#ccc" font-size="13">Date (UTC)</text>
  <text x="15" y="200.0" text-anchor="middle" fill="#4cc9f0" font-size="13" transform="rotate(-90 15 200.0)">Cumulative (TB)</text>
  <text x="890" y="200.0" text-anchor="middle" fill="#f77f00" font-size="13" transform="rotate(90 890 200.0)">Hourly rate (TB/hr)</text>
  
  <!-- Title -->
  <text x="450.0" y="20" text-anchor="middle" fill="#eee" font-size="16" font-weight="bold">S3 Upload Progress: 470 TB in 7 days</text>
  
  <!-- Legend -->
  <line x1="80" y1="32" x2="100" y2="32" stroke="#4cc9f0" stroke-width="2.5"/>
  <text x="105" y="36" fill="#4cc9f0" font-size="11">Cumulative</text>
  <line x1="200" y1="32" x2="220" y2="32" stroke="#f77f00" stroke-width="1"/>
  <text x="225" y="36" fill="#f77f00" font-size="11">Hourly rate</text>
</svg>